  0
SECTION
  2
HEADER
  9
$ACADVER
  1
AC1014
  9
$HANDSEED
  5
FFFF
  9
$MEASUREMENT
 70
     1
  0
ENDSEC
  0
SECTION
  2
TABLES
  0
TABLE
  2
VPORT
  5
8
330
0
100
AcDbSymbolTable
 70
     4
  0
VPORT
  5
2E
330
8
100
AcDbSymbolTableRecord
100
AcDbViewportTableRecord
  2
*ACTIVE
 70
     0
 10
0.0
 20
0.0
 11
1.0
 21
1.0
 12
210.0
 22
148.5
 13
0.0
 23
0.0
 14
10.0
 24
10.0
 15
10.0
 25
10.0
 16
0.0
 26
0.0
 36
1.0
 17
0.0
 27
0.0
 37
0.0
 40
341.0
 41
1.24
 42
50.0
 43
0.0
 44
0.0
 50
0.0
 51
0.0
 71
     0
 72
   100
 73
     1
 74
     3
 75
     0
 76
     0
 77
     0
 78
     0
  0
ENDTAB
  0
TABLE
  2
LTYPE
  5
5
330
0
100
AcDbSymbolTable
 70
     1
  0
LTYPE
  5
14
330
5
100
AcDbSymbolTableRecord
100
AcDbLinetypeTableRecord
  2
BYBLOCK
 70
     0
  3

 72
    65
 73
     0
 40
0.0
  0
LTYPE
  5
15
330
5
100
AcDbSymbolTableRecord
100
AcDbLinetypeTableRecord
  2
BYLAYER
 70
     0
  3

 72
    65
 73
     0
 40
0.0
  0
LTYPE
  5
16
330
5
100
AcDbSymbolTableRecord
100
AcDbLinetypeTableRecord
  2
CONTINUOUS
 70
     0
  3
Solid line
 72
    65
 73
     0
 40
0.0
  0
ENDTAB
  0
TABLE
  2
LAYER
  5
2
100
AcDbSymbolTable
 70
1
  0
LAYER
  5
50
100
AcDbSymbolTableRecord
100
AcDbLayerTableRecord
  2
0
 70
0
  6
CONTINUOUS
  0
ENDTAB
  0
TABLE
  2
STYLE
  5
3
330
0
100
AcDbSymbolTable
 70
     1
  0
STYLE
  5
11
330
3
100
AcDbSymbolTableRecord
100
AcDbTextStyleTableRecord
  2
STANDARD
 70
     0
 40
0.0
 41
1.0
 50
0.0
 71
     0
 42
2.5
  3
txt
  4

  0
ENDTAB
  0
TABLE
  2
VIEW
  5
6
330
0
100
AcDbSymbolTable
 70
     0
  0
ENDTAB
  0
TABLE
  2
UCS
  5
7
330
0
100
AcDbSymbolTable
 70
     0
  0
ENDTAB
  0
TABLE
  2
APPID
  5
9
330
0
100
AcDbSymbolTable
 70
     2
  0
APPID
  5
12
330
9
100
AcDbSymbolTableRecord
100
AcDbRegAppTableRecord
  2
ACAD
 70
     0
  0
ENDTAB
  0
TABLE
  2
DIMSTYLE
  5
A
330
0
100
AcDbSymbolTable
 70
     1
  0
DIMSTYLE
105
27
330
A
100
AcDbSymbolTableRecord
100
AcDbDimStyleTableRecord
  2
ISO-25
 70
     0
  3

  4

  5

  6

  7

 40
1.0
 41
2.5
 42
0.625
 43
3.75
 44
1.25
 45
0.0
 46
0.0
 47
0.0
 48
0.0
140
2.5
141
2.5
142
0.0
143
0.03937007874016
144
1.0
145
0.0
146
1.0
147
0.625
 71
     0
 72
     0
 73
     0
 74
     0
 75
     0
 76
     0
 77
     1
 78
     8
170
     0
171
     3
172
     1
173
     0
174
     0
175
     0
176
     0
177
     0
178
     0
270
     2
271
     2
272
     2
273
     2
274
     3
340
11
275
     0
280
     0
281
     0
282
     0
283
     0
284
     8
285
     0
286
     0
287
     3
288
     0
  0
ENDTAB
  0
TABLE
  2
BLOCK_RECORD
  5
1
330
0
100
AcDbSymbolTable
 70
     1
  0
BLOCK_RECORD
  5
1F
330
1
100
AcDbSymbolTableRecord
100
AcDbBlockTableRecord
  2
*MODEL_SPACE
  0
BLOCK_RECORD
  5
1B
330
1
100
AcDbSymbolTableRecord
100
AcDbBlockTableRecord
  2
*PAPER_SPACE
  0
ENDTAB
  0
ENDSEC
  0
SECTION
  2
BLOCKS
  0
BLOCK
  5
20
330
1F
100
AcDbEntity
  8
0
100
AcDbBlockBegin
  2
*MODEL_SPACE
 70
     0
 10
0.0
 20
0.0
 30
0.0
  3
*MODEL_SPACE
  1

  0
ENDBLK
  5
21
330
1F
100
AcDbEntity
  8
0
100
AcDbBlockEnd
  0
BLOCK
  5
1C
330
1B
100
AcDbEntity
 67
     1
  8
0
100
AcDbBlockBegin
  2
*PAPER_SPACE
  1

  0
ENDBLK
  5
1D
330
1B
100
AcDbEntity
 67
     1
  8
0
100
AcDbBlockEnd
  0
ENDSEC
  0
SECTION
  2
ENTITIES
  0
LWPOLYLINE
  5
100
100
AcDbEntity
  8
0
 62
5
100
AcDbPolyline
 90
5
 70
0
 10
148.000000
 20
62.500025
 30
0.0
 10
5.000000
 20
62.500025
 30
0.0
 10
5.000000
 20
5.000016
 30
0.0
 10
148.000000
 20
5.000016
 30
0.0
 10
148.000000
 20
62.500025
 30
0.0
  0
LWPOLYLINE
  5
101
100
AcDbEntity
  8
0
 62
5
100
AcDbPolyline
 90
5
 70
0
 10
126.515001
 20
41.015026
 30
0.0
 10
126.515001
 20
55.135024
 30
0.0
 10
140.634999
 20
55.135024
 30
0.0
 10
140.634999
 20
41.015026
 30
0.0
 10
126.515001
 20
41.015026
 30
0.0
  0
LWPOLYLINE
  5
102
100
AcDbEntity
  8
0
 62
5
100
AcDbPolyline
 90
5
 70
0
 10
107.515000
 20
41.015026
 30
0.0
 10
107.515000
 20
55.085026
 30
0.0
 10
121.584999
 20
55.085026
 30
0.0
 10
121.584999
 20
41.015026
 30
0.0
 10
107.515000
 20
41.015026
 30
0.0
  0
LWPOLYLINE
  5
103
100
AcDbEntity
  8
0
 62
5
100
AcDbPolyline
 90
5
 70
0
 10
88.515001
 20
41.015026
 30
0.0
 10
88.515001
 20
55.035024
 30
0.0
 10
102.534999
 20
55.035024
 30
0.0
 10
102.534999
 20
41.015026
 30
0.0
 10
88.515001
 20
41.015026
 30
0.0
  0
LWPOLYLINE
  5
104
100
AcDbEntity
  8
0
 62
5
100
AcDbPolyline
 90
5
 70
0
 10
69.514999
 20
41.015026
 30
0.0
 10
69.514999
 20
54.985026
 30
0.0
 10
83.484999
 20
54.985026
 30
0.0
 10
83.484999
 20
41.015026
 30
0.0
 10
69.514999
 20
41.015026
 30
0.0
  0
LWPOLYLINE
  5
105
100
AcDbEntity
  8
0
 62
5
100
AcDbPolyline
 90
5
 70
0
 10
50.515001
 20
41.015026
 30
0.0
 10
50.515001
 20
54.935024
 30
0.0
 10
64.434999
 20
54.935024
 30
0.0
 10
64.434999
 20
41.015026
 30
0.0
 10
50.515001
 20
41.015026
 30
0.0
  0
LWPOLYLINE
  5
106
100
AcDbEntity
  8
0
 62
5
100
AcDbPolyline
 90
5
 70
0
 10
31.514999
 20
41.015026
 30
0.0
 10
31.514999
 20
54.885026
 30
0.0
 10
45.384999
 20
54.885026
 30
0.0
 10
45.384999
 20
41.015026
 30
0.0
 10
31.514999
 20
41.015026
 30
0.0
  0
LWPOLYLINE
  5
107
100
AcDbEntity
  8
0
 62
5
100
AcDbPolyline
 90
5
 70
0
 10
12.515000
 20
41.015026
 30
0.0
 10
12.515000
 20
54.835025
 30
0.0
 10
26.335000
 20
54.835025
 30
0.0
 10
26.335000
 20
41.015026
 30
0.0
 10
12.515000
 20
41.015026
 30
0.0
  0
LWPOLYLINE
  5
108
100
AcDbEntity
  8
0
 62
5
100
AcDbPolyline
 90
61
 70
0
 10
21.149500
 20
26.223725
 30
0.0
 10
21.176300
 20
26.352224
 30
0.0
 10
21.197901
 20
26.492624
 30
0.0
 10
21.214500
 20
26.644725
 30
0.0
 10
21.225600
 20
26.803223
 30
0.0
 10
21.232300
 20
26.962925
 30
0.0
 10
21.234501
 20
27.123723
 30
0.0
 10
21.227399
 20
27.299026
 30
0.0
 10
21.206101
 20
27.462325
 30
0.0
 10
21.170500
 20
27.613723
 30
0.0
 10
21.120900
 20
27.751826
 30
0.0
 10
21.058900
 20
27.875425
 30
0.0
 10
20.984500
 20
27.984724
 30
0.0
 10
20.898200
 20
28.079223
 30
0.0
 10
20.800500
 20
28.157625
 30
0.0
 10
20.691500
 20
28.219725
 30
0.0
 10
20.572100
 20
28.265225
 30
0.0
 10
20.443100
 20
28.292629
 30
0.0
 10
20.304500
 20
28.301711
 30
0.0
 10
20.052400
 20
28.268626
 30
0.0
 10
19.850700
 20
28.169224
 30
0.0
 10
19.699500
 20
28.003723
 30
0.0
 10
19.594500
 20
27.776024
 30
0.0
 10
19.531500
 20
27.490324
 30
0.0
 10
19.510500
 20
27.146725
 30
0.0
 10
19.510500
 20
26.302725
 30
0.0
 10
17.235500
 20
26.302725
 30
0.0
 10
17.235500
 20
28.700725
 30
0.0
 10
17.753500
 20
28.700725
 30
0.0
 10
17.753500
 20
26.860723
 30
0.0
 10
19.003500
 20
26.860723
 30
0.0
 10
19.003500
 20
27.249724
 30
0.0
 10
19.009901
 20
27.461126
 30
0.0
 10
19.029300
 20
27.668824
 30
0.0
 10
19.061500
 20
27.872724
 30
0.0
 10
19.109800
 20
28.067325
 30
0.0
 10
19.177500
 20
28.247323
 30
0.0
 10
19.264500
 20
28.412725
 30
0.0
 10
19.371600
 20
28.560325
 30
0.0
 10
19.500900
 20
28.687325
 30
0.0
 10
19.652500
 20
28.793725
 30
0.0
 10
19.828400
 20
28.874224
 30
0.0
 10
20.032000
 20
28.922625
 30
0.0
 10
20.263500
 20
28.938740
 30
0.0
 10
20.477700
 20
28.922836
 30
0.0
 10
20.679000
 20
28.875124
 30
0.0
 10
20.867500
 20
28.795724
 30
0.0
 10
21.040400
 20
28.688324
 30
0.0
 10
21.196400
 20
28.557026
 30
0.0
 10
21.335500
 20
28.401724
 30
0.0
 10
21.455900
 20
28.224924
 30
0.0
 10
21.557300
 20
28.027924
 30
0.0
 10
21.639500
 20
27.810726
 30
0.0
 10
21.700000
 20
27.577923
 30
0.0
 10
21.736400
 20
27.332923
 30
0.0
 10
21.748499
 20
27.075726
 30
0.0
 10
21.746299
 20
26.937025
 30
0.0
 10
21.735000
 20
26.711123
 30
0.0
 10
21.704400
 20
26.346825
 30
0.0
 10
21.687500
 20
26.223725
 30
0.0
 10
21.149500
 20
26.223725
 30
0.0
  0
LWPOLYLINE
  5
109
100
AcDbEntity
  8
0
 62
5
100
AcDbPolyline
 90
61
 70
0
 10
59.149499
 20
26.223725
 30
0.0
 10
59.176310
 20
26.352224
 30
0.0
 10
59.197889
 20
26.492624
 30
0.0
 10
59.214495
 20
26.644725
 30
0.0
 10
59.225592
 20
26.803223
 30
0.0
 10
59.232289
 20
26.962925
 30
0.0
 10
59.234558
 20
27.123723
 30
0.0
 10
59.227415
 20
27.299026
 30
0.0
 10
59.206093
 20
27.462325
 30
0.0
 10
59.170499
 20
27.613723
 30
0.0
 10
59.120899
 20
27.751826
 30
0.0
 10
59.058900
 20
27.875425
 30
0.0
 10
58.984501
 20
27.984724
 30
0.0
 10
58.898200
 20
28.079223
 30
0.0
 10
58.800500
 20
28.157625
 30
0.0
 10
58.691501
 20
28.219725
 30
0.0
 10
58.572101
 20
28.265225
 30
0.0
 10
58.443100
 20
28.292629
 30
0.0
 10
58.304501
 20
28.301711
 30
0.0
 10
58.052400
 20
28.268626
 30
0.0
 10
57.850699
 20
28.169224
 30
0.0
 10
57.699501
 20
28.003723
 30
0.0
 10
57.594500
 20
27.776024
 30
0.0
 10
57.531500
 20
27.490324
 30
0.0
 10
57.510502
 20
27.146725
 30
0.0
 10
57.510499
 20
26.302725
 30
0.0
 10
55.235500
 20
26.302725
 30
0.0
 10
55.235500
 20
28.700725
 30
0.0
 10
55.753500
 20
28.700725
 30
0.0
 10
55.753500
 20
26.860723
 30
0.0
 10
57.003501
 20
26.860723
 30
0.0
 10
57.003501
 20
27.249724
 30
0.0
 10
57.009908
 20
27.461126
 30
0.0
 10
57.029288
 20
27.668824
 30
0.0
 10
57.061501
 20
27.872724
 30
0.0
 10
57.109800
 20
28.067325
 30
0.0
 10
57.177500
 20
28.247323
 30
0.0
 10
57.264500
 20
28.412725
 30
0.0
 10
57.371601
 20
28.560325
 30
0.0
 10
57.500901
 20
28.687325
 30
0.0
 10
57.652499
 20
28.793725
 30
0.0
 10
57.828400
 20
28.874224
 30
0.0
 10
58.032001
 20
28.922625
 30
0.0
 10
58.263499
 20
28.938740
 30
0.0
 10
58.477700
 20
28.922836
 30
0.0
 10
58.679001
 20
28.875124
 30
0.0
 10
58.867500
 20
28.795724
 30
0.0
 10
59.040401
 20
28.688324
 30
0.0
 10
59.196399
 20
28.557026
 30
0.0
 10
59.335501
 20
28.401724
 30
0.0
 10
59.455899
 20
28.224924
 30
0.0
 10
59.557299
 20
28.027924
 30
0.0
 10
59.639499
 20
27.810726
 30
0.0
 10
59.699999
 20
27.577923
 30
0.0
 10
59.736400
 20
27.332923
 30
0.0
 10
59.748507
 20
27.075726
 30
0.0
 10
59.746241
 20
26.937025
 30
0.0
 10
59.735012
 20
26.711123
 30
0.0
 10
59.704399
 20
26.346825
 30
0.0
 10
59.687494
 20
26.223725
 30
0.0
 10
59.149499
 20
26.223725
 30
0.0
  0
LWPOLYLINE
  5
10a
100
AcDbEntity
  8
0
 62
5
100
AcDbPolyline
 90
12
 70
0
 10
36.215501
 20
25.622123
 30
0.0
 10
36.215501
 20
26.146125
 30
0.0
 10
40.135500
 20
26.146125
 30
0.0
 10
40.135500
 20
27.141125
 30
0.0
 10
40.687501
 20
27.141125
 30
0.0
 10
40.687501
 20
24.345124
 30
0.0
 10
40.135500
 20
24.345124
 30
0.0
 10
40.135500
 20
25.489123
 30
0.0
 10
36.886501
 20
25.489123
 30
0.0
 10
37.465500
 20
24.423125
 30
0.0
 10
36.961499
 20
24.205125
 30
0.0
 10
36.215501
 20
25.622123
 30
0.0
  0
LWPOLYLINE
  5
10b
100
AcDbEntity
  8
0
 62
5
100
AcDbPolyline
 90
61
 70
0
 10
97.149499
 20
24.351124
 30
0.0
 10
97.176311
 20
24.479725
 30
0.0
 10
97.197889
 20
24.620026
 30
0.0
 10
97.214495
 20
24.772124
 30
0.0
 10
97.225592
 20
24.930724
 30
0.0
 10
97.232289
 20
25.090324
 30
0.0
 10
97.234558
 20
25.251125
 30
0.0
 10
97.227387
 20
25.426425
 30
0.0
 10
97.206091
 20
25.589823
 30
0.0
 10
97.170500
 20
25.741125
 30
0.0
 10
97.120899
 20
25.879225
 30
0.0
 10
97.058901
 20
26.002923
 30
0.0
 10
96.984501
 20
26.112123
 30
0.0
 10
96.898200
 20
26.206724
 30
0.0
 10
96.800501
 20
26.285024
 30
0.0
 10
96.691501
 20
26.347124
 30
0.0
 10
96.572101
 20
26.392726
 30
0.0
 10
96.443100
 20
26.420016
 30
0.0
 10
96.304501
 20
26.429112
 30
0.0
 10
96.052400
 20
26.396025
 30
0.0
 10
95.850699
 20
26.296725
 30
0.0
 10
95.699501
 20
26.131125
 30
0.0
 10
95.594500
 20
25.903426
 30
0.0
 10
95.531500
 20
25.617825
 30
0.0
 10
95.510502
 20
25.274124
 30
0.0
 10
95.510500
 20
24.430124
 30
0.0
 10
93.235501
 20
24.430124
 30
0.0
 10
93.235501
 20
26.828124
 30
0.0
 10
93.753500
 20
26.828124
 30
0.0
 10
93.753500
 20
24.988125
 30
0.0
 10
95.003499
 20
24.988125
 30
0.0
 10
95.003499
 20
25.377123
 30
0.0
 10
95.009905
 20
25.588525
 30
0.0
 10
95.029288
 20
25.796223
 30
0.0
 10
95.061501
 20
26.000123
 30
0.0
 10
95.109800
 20
26.194826
 30
0.0
 10
95.177500
 20
26.374824
 30
0.0
 10
95.264501
 20
26.540125
 30
0.0
 10
95.371601
 20
26.687826
 30
0.0
 10
95.500901
 20
26.814826
 30
0.0
 10
95.652500
 20
26.921125
 30
0.0
 10
95.828400
 20
27.001724
 30
0.0
 10
96.032001
 20
27.050024
 30
0.0
 10
96.263500
 20
27.066139
 30
0.0
 10
96.477701
 20
27.050236
 30
0.0
 10
96.679001
 20
27.002526
 30
0.0
 10
96.867500
 20
26.923126
 30
0.0
 10
97.040401
 20
26.815825
 30
0.0
 10
97.196399
 20
26.684425
 30
0.0
 10
97.335501
 20
26.529124
 30
0.0
 10
97.455900
 20
26.352325
 30
0.0
 10
97.557299
 20
26.155326
 30
0.0
 10
97.639499
 20
25.938125
 30
0.0
 10
97.699999
 20
25.705325
 30
0.0
 10
97.736400
 20
25.460325
 30
0.0
 10
97.748508
 20
25.203125
 30
0.0
 10
97.746241
 20
25.064424
 30
0.0
 10
97.735012
 20
24.838525
 30
0.0
 10
97.704399
 20
24.474224
 30
0.0
 10
97.687494
 20
24.351124
 30
0.0
 10
97.149499
 20
24.351124
 30
0.0
  0
LWPOLYLINE
  5
10c
100
AcDbEntity
  8
0
 62
5
100
AcDbPolyline
 90
61
 70
0
 10
135.149000
 20
24.351124
 30
0.0
 10
135.176009
 20
24.479725
 30
0.0
 10
135.197985
 20
24.620026
 30
0.0
 10
135.214002
 20
24.772124
 30
0.0
 10
135.225993
 20
24.930724
 30
0.0
 10
135.232010
 20
25.090324
 30
0.0
 10
135.233974
 20
25.251125
 30
0.0
 10
135.227001
 20
25.426425
 30
0.0
 10
135.206003
 20
25.589823
 30
0.0
 10
135.170000
 20
25.741125
 30
0.0
 10
135.121001
 20
25.879225
 30
0.0
 10
135.058999
 20
26.002923
 30
0.0
 10
134.983999
 20
26.112123
 30
0.0
 10
134.898000
 20
26.206724
 30
0.0
 10
134.799999
 20
26.285024
 30
0.0
 10
134.690999
 20
26.347124
 30
0.0
 10
134.572000
 20
26.392726
 30
0.0
 10
134.442999
 20
26.420016
 30
0.0
 10
134.303999
 20
26.429112
 30
0.0
 10
134.052000
 20
26.396025
 30
0.0
 10
133.851001
 20
26.296725
 30
0.0
 10
133.698999
 20
26.131125
 30
0.0
 10
133.594001
 20
25.903426
 30
0.0
 10
133.531000
 20
25.617825
 30
0.0
 10
133.510003
 20
25.274124
 30
0.0
 10
133.510000
 20
24.430124
 30
0.0
 10
131.236000
 20
24.430124
 30
0.0
 10
131.236000
 20
26.828124
 30
0.0
 10
131.753999
 20
26.828124
 30
0.0
 10
131.753999
 20
24.988125
 30
0.0
 10
133.004001
 20
24.988125
 30
0.0
 10
133.004001
 20
25.377123
 30
0.0
 10
133.010013
 20
25.588525
 30
0.0
 10
133.028995
 20
25.796223
 30
0.0
 10
133.062001
 20
26.000123
 30
0.0
 10
133.110001
 20
26.194826
 30
0.0
 10
133.178000
 20
26.374824
 30
0.0
 10
133.265000
 20
26.540125
 30
0.0
 10
133.371999
 20
26.687826
 30
0.0
 10
133.501000
 20
26.814826
 30
0.0
 10
133.652000
 20
26.921125
 30
0.0
 10
133.828000
 20
27.001724
 30
0.0
 10
134.031998
 20
27.050024
 30
0.0
 10
134.263000
 20
27.066139
 30
0.0
 10
134.478000
 20
27.050236
 30
0.0
 10
134.678999
 20
27.002526
 30
0.0
 10
134.867001
 20
26.923126
 30
0.0
 10
135.040000
 20
26.815825
 30
0.0
 10
135.196001
 20
26.684425
 30
0.0
 10
135.334999
 20
26.529124
 30
0.0
 10
135.455999
 20
26.352325
 30
0.0
 10
135.557000
 20
26.155326
 30
0.0
 10
135.639000
 20
25.938125
 30
0.0
 10
135.700000
 20
25.705325
 30
0.0
 10
135.736000
 20
25.460325
 30
0.0
 10
135.747994
 20
25.203125
 30
0.0
 10
135.746024
 20
25.064424
 30
0.0
 10
135.734992
 20
24.838525
 30
0.0
 10
135.703999
 20
24.474224
 30
0.0
 10
135.687997
 20
24.351124
 30
0.0
 10
135.149000
 20
24.351124
 30
0.0
  0
LWPOLYLINE
  5
10d
100
AcDbEntity
  8
0
 62
5
100
AcDbPolyline
 90
49
 70
0
 10
57.132700
 20
22.184123
 30
0.0
 10
56.821699
 20
22.218825
 30
0.0
 10
56.530500
 20
22.276625
 30
0.0
 10
56.262101
 20
22.357224
 30
0.0
 10
56.020699
 20
22.460625
 30
0.0
 10
55.806501
 20
22.586524
 30
0.0
 10
55.620401
 20
22.735425
 30
0.0
 10
55.464699
 20
22.907425
 30
0.0
 10
55.339499
 20
23.102624
 30
0.0
 10
55.247800
 20
23.320624
 30
0.0
 10
55.192800
 20
23.561224
 30
0.0
 10
55.174512
 20
23.824625
 30
0.0
 10
55.189487
 20
24.055426
 30
0.0
 10
55.234499
 20
24.272125
 30
0.0
 10
55.309499
 20
24.474526
 30
0.0
 10
55.415200
 20
24.660423
 30
0.0
 10
55.553500
 20
24.827425
 30
0.0
 10
55.724501
 20
24.975626
 30
0.0
 10
55.928700
 20
25.103526
 30
0.0
 10
56.166701
 20
25.210226
 30
0.0
 10
56.438501
 20
25.295525
 30
0.0
 10
56.744399
 20
25.358325
 30
0.0
 10
57.086099
 20
25.396024
 30
0.0
 10
57.463501
 20
25.408639
 30
0.0
 10
57.794200
 20
25.397110
 30
0.0
 10
58.104800
 20
25.362823
 30
0.0
 10
58.395500
 20
25.305625
 30
0.0
 10
58.662401
 20
25.225824
 30
0.0
 10
58.903001
 20
25.122424
 30
0.0
 10
59.117501
 20
24.995525
 30
0.0
 10
59.303099
 20
24.846224
 30
0.0
 10
59.458400
 20
24.674224
 30
0.0
 10
59.583501
 20
24.479626
 30
0.0
 10
59.675200
 20
24.262326
 30
0.0
 10
59.730200
 20
24.021325
 30
0.0
 10
59.748488
 20
23.756524
 30
0.0
 10
59.733598
 20
23.525125
 30
0.0
 10
59.688899
 20
23.308124
 30
0.0
 10
59.614500
 20
23.105525
 30
0.0
 10
59.508500
 20
22.919724
 30
0.0
 10
59.370499
 20
22.752725
 30
0.0
 10
59.200500
 20
22.604626
 30
0.0
 10
58.997401
 20
22.477025
 30
0.0
 10
58.760100
 20
22.370325
 30
0.0
 10
58.488501
 20
22.284524
 30
0.0
 10
58.182200
 20
22.222325
 30
0.0
 10
57.840499
 20
22.185024
 30
0.0
 10
57.463501
 20
22.172521
 30
0.0
 10
57.132700
 20
22.184123
 30
0.0
  0
LWPOLYLINE
  5
10e
100
AcDbEntity
  8
0
 62
5
100
AcDbPolyline
 90
29
 70
0
 10
58.545499
 20
22.934626
 30
0.0
 10
58.654501
 20
22.977625
 30
0.0
 10
58.757501
 20
23.026624
 30
0.0
 10
58.852799
 20
23.082725
 30
0.0
 10
58.938801
 20
23.145725
 30
0.0
 10
59.015500
 20
23.215524
 30
0.0
 10
59.081599
 20
23.292924
 30
0.0
 10
59.137299
 20
23.376924
 30
0.0
 10
59.182500
 20
23.467523
 30
0.0
 10
59.215299
 20
23.566524
 30
0.0
 10
59.234886
 20
23.674226
 30
0.0
 10
59.241504
 20
23.790625
 30
0.0
 10
59.228998
 20
23.939924
 30
0.0
 10
59.191700
 20
24.079926
 30
0.0
 10
59.129501
 20
24.210626
 30
0.0
 10
59.042201
 20
24.330325
 30
0.0
 10
58.930800
 20
24.437724
 30
0.0
 10
58.795499
 20
24.532526
 30
0.0
 10
58.635700
 20
24.614325
 30
0.0
 10
58.452399
 20
24.682323
 30
0.0
 10
58.245499
 20
24.736623
 30
0.0
 10
58.014599
 20
24.776625
 30
0.0
 10
57.760599
 20
24.800614
 30
0.0
 10
57.483499
 20
24.808528
 30
0.0
 10
57.406399
 20
24.807678
 30
0.0
 10
57.329699
 20
24.804633
 30
0.0
 10
57.030499
 20
24.781623
 30
0.0
 10
58.430499
 20
22.897623
 30
0.0
 10
58.545499
 20
22.934626
 30
0.0
  0
LWPOLYLINE
  5
10f
100
AcDbEntity
  8
0
 62
5
100
AcDbPolyline
 90
28
 70
0
 10
57.723800
 20
22.775825
 30
0.0
 10
57.858499
 20
22.785618
 30
0.0
 10
56.465501
 20
24.669623
 30
0.0
 10
56.352999
 20
24.632023
 30
0.0
 10
56.247301
 20
24.588724
 30
0.0
 10
56.148501
 20
24.539623
 30
0.0
 10
56.057501
 20
24.484124
 30
0.0
 10
55.975199
 20
24.421824
 30
0.0
 10
55.901500
 20
24.352623
 30
0.0
 10
55.837300
 20
24.276423
 30
0.0
 10
55.783299
 20
24.193424
 30
0.0
 10
55.739498
 20
24.103525
 30
0.0
 10
55.707300
 20
24.006525
 30
0.0
 10
55.687996
 20
23.902225
 30
0.0
 10
55.681507
 20
23.790625
 30
0.0
 10
55.694086
 20
23.640723
 30
0.0
 10
55.731701
 20
23.500323
 30
0.0
 10
55.794501
 20
23.369623
 30
0.0
 10
55.881499
 20
23.249826
 30
0.0
 10
55.993199
 20
23.142423
 30
0.0
 10
56.129499
 20
23.047523
 30
0.0
 10
56.289900
 20
22.965724
 30
0.0
 10
56.473999
 20
22.897324
 30
0.0
 10
56.681500
 20
22.842525
 30
0.0
 10
56.912301
 20
22.803124
 30
0.0
 10
57.165999
 20
22.779418
 30
0.0
 10
57.442501
 20
22.771524
 30
0.0
 10
57.723800
 20
22.775814
 30
0.0
  0
LWPOLYLINE
  5
110
100
AcDbEntity
  8
0
 62
5
100
AcDbPolyline
 90
12
 70
0
 10
112.216001
 20
23.749624
 30
0.0
 10
112.216001
 20
24.273525
 30
0.0
 10
116.135000
 20
24.273525
 30
0.0
 10
116.135000
 20
25.268623
 30
0.0
 10
116.688001
 20
25.268623
 30
0.0
 10
116.688001
 20
22.472523
 30
0.0
 10
116.135000
 20
22.472523
 30
0.0
 10
116.135000
 20
23.616525
 30
0.0
 10
112.887001
 20
23.616525
 30
0.0
 10
113.465999
 20
22.550626
 30
0.0
 10
112.961999
 20
22.332623
 30
0.0
 10
112.216001
 20
23.749624
 30
0.0
  0
LWPOLYLINE
  5
111
100
AcDbEntity
  8
0
 62
5
100
AcDbPolyline
 90
12
 70
0
 10
17.215500
 20
23.749624
 30
0.0
 10
17.215500
 20
24.273525
 30
0.0
 10
21.135500
 20
24.273525
 30
0.0
 10
21.135500
 20
25.268623
 30
0.0
 10
21.687500
 20
25.268623
 30
0.0
 10
21.687500
 20
22.472523
 30
0.0
 10
21.135500
 20
22.472523
 30
0.0
 10
21.135500
 20
23.616525
 30
0.0
 10
17.886500
 20
23.616525
 30
0.0
 10
18.465500
 20
22.550626
 30
0.0
 10
17.961500
 20
22.332623
 30
0.0
 10
17.215500
 20
23.749624
 30
0.0
  0
LWPOLYLINE
  5
112
100
AcDbEntity
  8
0
 62
5
100
AcDbPolyline
 90
49
 70
0
 10
95.132700
 20
20.311624
 30
0.0
 10
94.821700
 20
20.346225
 30
0.0
 10
94.530500
 20
20.404024
 30
0.0
 10
94.262101
 20
20.484725
 30
0.0
 10
94.020699
 20
20.588024
 30
0.0
 10
93.806501
 20
20.714025
 30
0.0
 10
93.620401
 20
20.862925
 30
0.0
 10
93.464699
 20
21.034926
 30
0.0
 10
93.339499
 20
21.230026
 30
0.0
 10
93.247800
 20
21.448026
 30
0.0
 10
93.192800
 20
21.688725
 30
0.0
 10
93.174512
 20
21.952024
 30
0.0
 10
93.189515
 20
22.182924
 30
0.0
 10
93.234502
 20
22.399625
 30
0.0
 10
93.309499
 20
22.602024
 30
0.0
 10
93.415200
 20
22.787924
 30
0.0
 10
93.553500
 20
22.954926
 30
0.0
 10
93.724501
 20
23.103025
 30
0.0
 10
93.928700
 20
23.231024
 30
0.0
 10
94.166701
 20
23.337724
 30
0.0
 10
94.438501
 20
23.423025
 30
0.0
 10
94.744399
 20
23.485825
 30
0.0
 10
95.086099
 20
23.523426
 30
0.0
 10
95.463501
 20
23.536013
 30
0.0
 10
95.794201
 20
23.524622
 30
0.0
 10
96.104800
 20
23.490225
 30
0.0
 10
96.395500
 20
23.433024
 30
0.0
 10
96.662401
 20
23.353223
 30
0.0
 10
96.903001
 20
23.249924
 30
0.0
 10
97.117501
 20
23.123026
 30
0.0
 10
97.303099
 20
22.973725
 30
0.0
 10
97.458400
 20
22.801724
 30
0.0
 10
97.583501
 20
22.607025
 30
0.0
 10
97.675200
 20
22.389824
 30
0.0
 10
97.730200
 20
22.148826
 30
0.0
 10
97.748488
 20
21.884025
 30
0.0
 10
97.733598
 20
21.652524
 30
0.0
 10
97.688900
 20
21.435523
 30
0.0
 10
97.614500
 20
21.233026
 30
0.0
 10
97.508500
 20
21.047123
 30
0.0
 10
97.370499
 20
20.880124
 30
0.0
 10
97.200500
 20
20.732025
 30
0.0
 10
96.997399
 20
20.604424
 30
0.0
 10
96.760101
 20
20.497823
 30
0.0
 10
96.488501
 20
20.412025
 30
0.0
 10
96.182200
 20
20.349826
 30
0.0
 10
95.840499
 20
20.312426
 30
0.0
 10
95.463501
 20
20.300036
 30
0.0
 10
95.132700
 20
20.311624
 30
0.0
  0
LWPOLYLINE
  5
113
100
AcDbEntity
  8
0
 62
5
100
AcDbPolyline
 90
25
 70
0
 10
96.545499
 20
21.062025
 30
0.0
 10
96.654501
 20
21.105024
 30
0.0
 10
96.757501
 20
21.154024
 30
0.0
 10
96.852799
 20
21.210124
 30
0.0
 10
96.938801
 20
21.273124
 30
0.0
 10
97.015500
 20
21.343025
 30
0.0
 10
97.081600
 20
21.420326
 30
0.0
 10
97.137299
 20
21.504323
 30
0.0
 10
97.182500
 20
21.595024
 30
0.0
 10
97.215300
 20
21.694025
 30
0.0
 10
97.234914
 20
21.801724
 30
0.0
 10
97.241501
 20
21.918024
 30
0.0
 10
97.228999
 20
22.067326
 30
0.0
 10
97.191700
 20
22.207325
 30
0.0
 10
97.129501
 20
22.338025
 30
0.0
 10
97.042201
 20
22.457825
 30
0.0
 10
96.930800
 20
22.565123
 30
0.0
 10
96.795500
 20
22.660023
 30
0.0
 10
96.635700
 20
22.741826
 30
0.0
 10
96.452399
 20
22.809824
 30
0.0
 10
96.245499
 20
22.864025
 30
0.0
 10
96.014599
 20
22.904024
 30
0.0
 10
95.760599
 20
22.928013
 30
0.0
 10
95.483499
 20
22.936040
 30
0.0
 10
95.406399
 20
22.934897
 30
0.0
  0
LWPOLYLINE
  5
114
100
AcDbEntity
  8
0
 62
5
100
AcDbPolyline
 90
5
 70
0
 10
95.406399
 20
22.935024
 30
0.0
 10
95.329700
 20
22.932032
 30
0.0
 10
95.030499
 20
22.909022
 30
0.0
 10
96.430499
 20
21.025025
 30
0.0
 10
96.545499
 20
21.062025
 30
0.0
  0
LWPOLYLINE
  5
115
100
AcDbEntity
  8
0
 62
5
100
AcDbPolyline
 90
28
 70
0
 10
95.723800
 20
20.903224
 30
0.0
 10
95.858499
 20
20.913017
 30
0.0
 10
94.465501
 20
22.797025
 30
0.0
 10
94.352999
 20
22.759425
 30
0.0
 10
94.247301
 20
22.716124
 30
0.0
 10
94.148501
 20
22.667025
 30
0.0
 10
94.057501
 20
22.611524
 30
0.0
 10
93.975199
 20
22.549223
 30
0.0
 10
93.901500
 20
22.480025
 30
0.0
 10
93.837300
 20
22.403924
 30
0.0
 10
93.783300
 20
22.320925
 30
0.0
 10
93.739499
 20
22.231023
 30
0.0
 10
93.707300
 20
22.134023
 30
0.0
 10
93.687996
 20
22.029725
 30
0.0
 10
93.681508
 20
21.918024
 30
0.0
 10
93.694086
 20
21.768125
 30
0.0
 10
93.731701
 20
21.627824
 30
0.0
 10
93.794501
 20
21.497025
 30
0.0
 10
93.881499
 20
21.377225
 30
0.0
 10
93.993200
 20
21.269924
 30
0.0
 10
94.129499
 20
21.175024
 30
0.0
 10
94.289900
 20
21.093126
 30
0.0
 10
94.473999
 20
21.024825
 30
0.0
 10
94.681500
 20
20.970026
 30
0.0
 10
94.912299
 20
20.930523
 30
0.0
 10
95.165999
 20
20.906930
 30
0.0
 10
95.442501
 20
20.899022
 30
0.0
 10
95.723800
 20
20.903230
 30
0.0
  0
LWPOLYLINE
  5
116
100
AcDbEntity
  8
0
 62
5
100
AcDbPolyline
 90
12
 70
0
 10
131.215999
 20
21.877023
 30
0.0
 10
131.215999
 20
22.401025
 30
0.0
 10
135.134999
 20
22.401025
 30
0.0
 10
135.134999
 20
23.396025
 30
0.0
 10
135.687999
 20
23.396025
 30
0.0
 10
135.687999
 20
20.600024
 30
0.0
 10
135.134999
 20
20.600024
 30
0.0
 10
135.134999
 20
21.744023
 30
0.0
 10
131.887000
 20
21.744023
 30
0.0
 10
132.466001
 20
20.678025
 30
0.0
 10
131.962000
 20
20.460025
 30
0.0
 10
131.215999
 20
21.877023
 30
0.0
  0
LWPOLYLINE
  5
117
100
AcDbEntity
  8
0
 62
5
100
AcDbPolyline
 90
49
 70
0
 10
40.108799
 20
21.329924
 30
0.0
 10
40.034501
 20
21.344515
 30
0.0
 10
39.963499
 20
21.369020
 30
0.0
 10
39.896999
 20
21.402424
 30
0.0
 10
39.836400
 20
21.442824
 30
0.0
 10
39.781500
 20
21.490023
 30
0.0
 10
39.733299
 20
21.544125
 30
0.0
 10
39.692600
 20
21.603824
 30
0.0
 10
39.659501
 20
21.669025
 30
0.0
 10
39.634496
 20
21.738923
 30
0.0
 10
39.619513
 20
21.812524
 30
0.0
 10
39.614503
 20
21.890025
 30
0.0
 10
39.619496
 20
21.966025
 30
0.0
 10
39.634485
 20
22.039324
 30
0.0
 10
39.659504
 20
22.110026
 30
0.0
 10
39.692600
 20
22.176224
 30
0.0
 10
39.733299
 20
22.236224
 30
0.0
 10
39.781500
 20
22.290024
 30
0.0
 10
39.836400
 20
22.337726
 30
0.0
 10
39.896999
 20
22.378024
 30
0.0
 10
39.963499
 20
22.411024
 30
0.0
 10
40.034501
 20
22.436029
 30
0.0
 10
40.108799
 20
22.451010
 30
0.0
 10
40.186500
 20
22.456019
 30
0.0
 10
40.262299
 20
22.451029
 30
0.0
 10
40.334901
 20
22.436038
 30
0.0
 10
40.404500
 20
22.411019
 30
0.0
 10
40.469701
 20
22.378024
 30
0.0
 10
40.529400
 20
22.337726
 30
0.0
 10
40.583499
 20
22.290024
 30
0.0
 10
40.631200
 20
22.236224
 30
0.0
 10
40.671499
 20
22.176224
 30
0.0
 10
40.704499
 20
22.110026
 30
0.0
 10
40.728911
 20
22.039324
 30
0.0
 10
40.743604
 20
21.966025
 30
0.0
 10
40.748512
 20
21.890025
 30
0.0
 10
40.743590
 20
21.812524
 30
0.0
 10
40.728897
 20
21.738923
 30
0.0
 10
40.704488
 20
21.669025
 30
0.0
 10
40.671499
 20
21.603824
 30
0.0
 10
40.631200
 20
21.544125
 30
0.0
 10
40.583499
 20
21.490023
 30
0.0
 10
40.529400
 20
21.442824
 30
0.0
 10
40.469701
 20
21.402424
 30
0.0
 10
40.404500
 20
21.369023
 30
0.0
 10
40.334901
 20
21.344526
 30
0.0
 10
40.262299
 20
21.329933
 30
0.0
 10
40.186500
 20
21.325014
 30
0.0
 10
40.108799
 20
21.329935
 30
0.0
  0
LWPOLYLINE
  5
118
100
AcDbEntity
  8
0
 62
5
100
AcDbPolyline
 90
49
 70
0
 10
76.132698
 20
18.439026
 30
0.0
 10
75.821701
 20
18.473725
 30
0.0
 10
75.530501
 20
18.531426
 30
0.0
 10
75.262099
 20
18.612124
 30
0.0
 10
75.020701
 20
18.715525
 30
0.0
 10
74.806500
 20
18.841424
 30
0.0
 10
74.620399
 20
18.990325
 30
0.0
 10
74.464700
 20
19.162325
 30
0.0
 10
74.339501
 20
19.357524
 30
0.0
 10
74.247801
 20
19.575524
 30
0.0
 10
74.192799
 20
19.816124
 30
0.0
 10
74.174511
 20
20.079426
 30
0.0
 10
74.189486
 20
20.310326
 30
0.0
 10
74.234500
 20
20.527025
 30
0.0
 10
74.309501
 20
20.729426
 30
0.0
 10
74.415201
 20
20.915326
 30
0.0
 10
74.553501
 20
21.082325
 30
0.0
 10
74.724500
 20
21.230424
 30
0.0
 10
74.928699
 20
21.358426
 30
0.0
 10
75.166700
 20
21.465126
 30
0.0
 10
75.438500
 20
21.550424
 30
0.0
 10
75.744400
 20
21.613224
 30
0.0
 10
76.086101
 20
21.650924
 30
0.0
 10
76.463500
 20
21.663426
 30
0.0
 10
76.794199
 20
21.652022
 30
0.0
 10
77.104799
 20
21.617726
 30
0.0
 10
77.395499
 20
21.560424
 30
0.0
 10
77.662399
 20
21.480724
 30
0.0
 10
77.902999
 20
21.377323
 30
0.0
 10
78.117500
 20
21.250425
 30
0.0
 10
78.303100
 20
21.101124
 30
0.0
 10
78.458399
 20
20.929123
 30
0.0
 10
78.583499
 20
20.734424
 30
0.0
 10
78.675199
 20
20.517226
 30
0.0
 10
78.730201
 20
20.276225
 30
0.0
 10
78.748489
 20
20.011424
 30
0.0
 10
78.733599
 20
19.780025
 30
0.0
 10
78.688901
 20
19.563024
 30
0.0
 10
78.614499
 20
19.360425
 30
0.0
 10
78.508499
 20
19.174624
 30
0.0
 10
78.370501
 20
19.007625
 30
0.0
 10
78.200501
 20
18.859526
 30
0.0
 10
77.997400
 20
18.731925
 30
0.0
 10
77.760099
 20
18.625225
 30
0.0
 10
77.488500
 20
18.539424
 30
0.0
 10
77.182201
 20
18.477225
 30
0.0
 10
76.840501
 20
18.439923
 30
0.0
 10
76.463500
 20
18.427421
 30
0.0
 10
76.132698
 20
18.439023
 30
0.0
  0
LWPOLYLINE
  5
119
100
AcDbEntity
  8
0
 62
5
100
AcDbPolyline
 90
25
 70
0
 10
77.545500
 20
19.189525
 30
0.0
 10
77.654500
 20
19.232525
 30
0.0
 10
77.757500
 20
19.281425
 30
0.0
 10
77.852801
 20
19.337624
 30
0.0
 10
77.938799
 20
19.400625
 30
0.0
 10
78.015499
 20
19.470424
 30
0.0
 10
78.081601
 20
19.547823
 30
0.0
 10
78.137300
 20
19.631824
 30
0.0
 10
78.182501
 20
19.722423
 30
0.0
 10
78.215301
 20
19.821424
 30
0.0
 10
78.234915
 20
19.929125
 30
0.0
 10
78.241505
 20
20.045424
 30
0.0
 10
78.228997
 20
20.194824
 30
0.0
 10
78.191699
 20
20.334826
 30
0.0
 10
78.129500
 20
20.465424
 30
0.0
 10
78.042200
 20
20.585224
 30
0.0
 10
77.930801
 20
20.692624
 30
0.0
 10
77.795501
 20
20.787425
 30
0.0
 10
77.635701
 20
20.869225
 30
0.0
 10
77.452401
 20
20.937223
 30
0.0
 10
77.245501
 20
20.991424
 30
0.0
 10
77.014601
 20
21.031423
 30
0.0
 10
76.760601
 20
21.055412
 30
0.0
 10
76.483501
 20
21.063410
 30
0.0
 10
76.406400
 20
21.062296
 30
0.0
  0
LWPOLYLINE
  5
11a
100
AcDbEntity
  8
0
 62
5
100
AcDbPolyline
 90
5
 70
0
 10
76.406400
 20
21.062425
 30
0.0
 10
76.329701
 20
21.059434
 30
0.0
 10
76.030500
 20
21.036424
 30
0.0
 10
77.430500
 20
19.152523
 30
0.0
 10
77.545500
 20
19.189525
 30
0.0
  0
LWPOLYLINE
  5
11b
100
AcDbEntity
  8
0
 62
5
100
AcDbPolyline
 90
28
 70
0
 10
76.723799
 20
19.030725
 30
0.0
 10
76.858501
 20
19.040518
 30
0.0
 10
75.465500
 20
20.924424
 30
0.0
 10
75.353000
 20
20.886926
 30
0.0
 10
75.247300
 20
20.843624
 30
0.0
 10
75.148499
 20
20.794424
 30
0.0
 10
75.057500
 20
20.739024
 30
0.0
 10
74.975201
 20
20.676724
 30
0.0
 10
74.901501
 20
20.607424
 30
0.0
 10
74.837298
 20
20.531326
 30
0.0
 10
74.783301
 20
20.448324
 30
0.0
 10
74.739500
 20
20.358425
 30
0.0
 10
74.707301
 20
20.261425
 30
0.0
 10
74.687997
 20
20.157124
 30
0.0
 10
74.681509
 20
20.045424
 30
0.0
 10
74.694088
 20
19.895626
 30
0.0
 10
74.731699
 20
19.755223
 30
0.0
 10
74.794499
 20
19.624523
 30
0.0
 10
74.881500
 20
19.504725
 30
0.0
 10
74.993201
 20
19.397326
 30
0.0
 10
75.129500
 20
19.302426
 30
0.0
 10
75.289901
 20
19.220624
 30
0.0
 10
75.474000
 20
19.152224
 30
0.0
 10
75.681501
 20
19.097425
 30
0.0
 10
75.912300
 20
19.058024
 30
0.0
 10
76.166001
 20
19.034317
 30
0.0
 10
76.442499
 20
19.026424
 30
0.0
 10
76.723799
 20
19.030713
 30
0.0
  0
LWPOLYLINE
  5
11c
100
AcDbEntity
  8
0
 62
5
100
AcDbPolyline
 90
49
 70
0
 10
21.108800
 20
19.457323
 30
0.0
 10
21.034500
 20
19.472027
 30
0.0
 10
20.963500
 20
19.496436
 30
0.0
 10
20.897000
 20
19.529925
 30
0.0
 10
20.836400
 20
19.570223
 30
0.0
 10
20.781500
 20
19.617425
 30
0.0
 10
20.733300
 20
19.671626
 30
0.0
 10
20.692600
 20
19.731226
 30
0.0
 10
20.659500
 20
19.796425
 30
0.0
 10
20.634500
 20
19.866325
 30
0.0
 10
20.619500
 20
19.940025
 30
0.0
 10
20.614499
 20
20.017424
 30
0.0
 10
20.619501
 20
20.093424
 30
0.0
 10
20.634500
 20
20.166824
 30
0.0
 10
20.659499
 20
20.237425
 30
0.0
 10
20.692600
 20
20.303626
 30
0.0
 10
20.733300
 20
20.363725
 30
0.0
 10
20.781500
 20
20.417424
 30
0.0
 10
20.836400
 20
20.465125
 30
0.0
 10
20.897000
 20
20.505423
 30
0.0
 10
20.963500
 20
20.538423
 30
0.0
 10
21.034500
 20
20.563428
 30
0.0
 10
21.108800
 20
20.578440
 30
0.0
 10
21.186500
 20
20.583421
 30
0.0
 10
21.262300
 20
20.578428
 30
0.0
 10
21.334900
 20
20.563411
 30
0.0
 10
21.404500
 20
20.538421
 30
0.0
 10
21.469700
 20
20.505423
 30
0.0
 10
21.529400
 20
20.465125
 30
0.0
 10
21.583500
 20
20.417424
 30
0.0
 10
21.631200
 20
20.363725
 30
0.0
 10
21.671500
 20
20.303626
 30
0.0
 10
21.704500
 20
20.237425
 30
0.0
 10
21.728901
 20
20.166824
 30
0.0
 10
21.743601
 20
20.093424
 30
0.0
 10
21.748499
 20
20.017424
 30
0.0
 10
21.743601
 20
19.940025
 30
0.0
 10
21.728899
 20
19.866325
 30
0.0
 10
21.704499
 20
19.796425
 30
0.0
 10
21.671500
 20
19.731226
 30
0.0
 10
21.631200
 20
19.671626
 30
0.0
 10
21.583500
 20
19.617425
 30
0.0
 10
21.529400
 20
19.570223
 30
0.0
 10
21.469700
 20
19.529925
 30
0.0
 10
21.404500
 20
19.496425
 30
0.0
 10
21.334900
 20
19.472013
 30
0.0
 10
21.262300
 20
19.457320
 30
0.0
 10
21.186500
 20
19.452526
 30
0.0
 10
21.108800
 20
19.457323
 30
0.0
  0
LWPOLYLINE
  5
11d
100
AcDbEntity
  8
0
 62
5
100
AcDbPolyline
 90
49
 70
0
 10
59.108800
 20
19.457323
 30
0.0
 10
59.034499
 20
19.472027
 30
0.0
 10
58.963501
 20
19.496436
 30
0.0
 10
58.897001
 20
19.529925
 30
0.0
 10
58.836399
 20
19.570223
 30
0.0
 10
58.781501
 20
19.617425
 30
0.0
 10
58.733301
 20
19.671626
 30
0.0
 10
58.692601
 20
19.731226
 30
0.0
 10
58.659499
 20
19.796425
 30
0.0
 10
58.634495
 20
19.866325
 30
0.0
 10
58.619486
 20
19.940025
 30
0.0
 10
58.614505
 20
20.017424
 30
0.0
 10
58.619494
 20
20.093424
 30
0.0
 10
58.634514
 20
20.166824
 30
0.0
 10
58.659505
 20
20.237425
 30
0.0
 10
58.692601
 20
20.303626
 30
0.0
 10
58.733301
 20
20.363725
 30
0.0
 10
58.781501
 20
20.417424
 30
0.0
 10
58.836399
 20
20.465125
 30
0.0
 10
58.897001
 20
20.505423
 30
0.0
 10
58.963501
 20
20.538423
 30
0.0
 10
59.034499
 20
20.563428
 30
0.0
 10
59.108800
 20
20.578440
 30
0.0
 10
59.186499
 20
20.583421
 30
0.0
 10
59.262301
 20
20.578428
 30
0.0
 10
59.334900
 20
20.563411
 30
0.0
 10
59.404501
 20
20.538421
 30
0.0
 10
59.469700
 20
20.505423
 30
0.0
 10
59.529399
 20
20.465125
 30
0.0
 10
59.583501
 20
20.417424
 30
0.0
 10
59.631199
 20
20.363725
 30
0.0
 10
59.671500
 20
20.303626
 30
0.0
 10
59.704501
 20
20.237425
 30
0.0
 10
59.728913
 20
20.166824
 30
0.0
 10
59.743602
 20
20.093424
 30
0.0
 10
59.748510
 20
20.017424
 30
0.0
 10
59.743588
 20
19.940025
 30
0.0
 10
59.728896
 20
19.866325
 30
0.0
 10
59.704486
 20
19.796425
 30
0.0
 10
59.671500
 20
19.731226
 30
0.0
 10
59.631199
 20
19.671626
 30
0.0
 10
59.583501
 20
19.617425
 30
0.0
 10
59.529399
 20
19.570223
 30
0.0
 10
59.469700
 20
19.529925
 30
0.0
 10
59.404501
 20
19.496425
 30
0.0
 10
59.334900
 20
19.472013
 30
0.0
 10
59.262301
 20
19.457320
 30
0.0
 10
59.186499
 20
19.452526
 30
0.0
 10
59.108800
 20
19.457323
 30
0.0
  0
LWPOLYLINE
  5
11e
100
AcDbEntity
  8
0
 62
5
100
AcDbPolyline
 90
49
 70
0
 10
116.108999
 20
19.457323
 30
0.0
 10
116.033999
 20
19.472027
 30
0.0
 10
115.963000
 20
19.496436
 30
0.0
 10
115.897000
 20
19.529925
 30
0.0
 10
115.836000
 20
19.570223
 30
0.0
 10
115.781001
 20
19.617425
 30
0.0
 10
115.733000
 20
19.671626
 30
0.0
 10
115.693001
 20
19.731226
 30
0.0
 10
115.658999
 20
19.796425
 30
0.0
 10
115.633994
 20
19.866325
 30
0.0
 10
115.619014
 20
19.940025
 30
0.0
 10
115.614004
 20
20.017424
 30
0.0
 10
115.618997
 20
20.093424
 30
0.0
 10
115.633985
 20
20.166824
 30
0.0
 10
115.659004
 20
20.237425
 30
0.0
 10
115.693001
 20
20.303626
 30
0.0
 10
115.733000
 20
20.363725
 30
0.0
 10
115.781001
 20
20.417424
 30
0.0
 10
115.836000
 20
20.465125
 30
0.0
 10
115.897000
 20
20.505423
 30
0.0
 10
115.963000
 20
20.538423
 30
0.0
 10
116.033999
 20
20.563428
 30
0.0
 10
116.108999
 20
20.578440
 30
0.0
 10
116.186001
 20
20.583421
 30
0.0
 10
116.262000
 20
20.578428
 30
0.0
 10
116.335000
 20
20.563411
 30
0.0
 10
116.404001
 20
20.538421
 30
0.0
 10
116.470001
 20
20.505423
 30
0.0
 10
116.529000
 20
20.465125
 30
0.0
 10
116.583000
 20
20.417424
 30
0.0
 10
116.631000
 20
20.363725
 30
0.0
 10
116.671000
 20
20.303626
 30
0.0
 10
116.704000
 20
20.237425
 30
0.0
 10
116.729005
 20
20.166824
 30
0.0
 10
116.743985
 20
20.093424
 30
0.0
 10
116.748007
 20
20.017424
 30
0.0
 10
116.743994
 20
19.940025
 30
0.0
 10
116.729013
 20
19.866325
 30
0.0
 10
116.703994
 20
19.796425
 30
0.0
 10
116.671000
 20
19.731226
 30
0.0
 10
116.631000
 20
19.671626
 30
0.0
 10
116.583000
 20
19.617425
 30
0.0
 10
116.529000
 20
19.570223
 30
0.0
 10
116.470001
 20
19.529925
 30
0.0
 10
116.404001
 20
19.496425
 30
0.0
 10
116.335000
 20
19.472013
 30
0.0
 10
116.262000
 20
19.457320
 30
0.0
 10
116.186001
 20
19.452526
 30
0.0
 10
116.108999
 20
19.457323
 30
0.0
  0
LWPOLYLINE
  5
11f
100
AcDbEntity
  8
0
 62
5
100
AcDbPolyline
 90
49
 70
0
 10
38.132701
 20
16.566524
 30
0.0
 10
37.821701
 20
16.601124
 30
0.0
 10
37.530501
 20
16.658923
 30
0.0
 10
37.262099
 20
16.739625
 30
0.0
 10
37.020700
 20
16.842924
 30
0.0
 10
36.806499
 20
16.968925
 30
0.0
 10
36.620399
 20
17.117825
 30
0.0
 10
36.464700
 20
17.289826
 30
0.0
 10
36.339501
 20
17.484926
 30
0.0
 10
36.247801
 20
17.702926
 30
0.0
 10
36.192801
 20
17.943624
 30
0.0
 10
36.174485
 20
18.206924
 30
0.0
 10
36.189514
 20
18.437824
 30
0.0
 10
36.234500
 20
18.654424
 30
0.0
 10
36.309500
 20
18.856924
 30
0.0
 10
36.415201
 20
19.042824
 30
0.0
 10
36.553501
 20
19.209826
 30
0.0
 10
36.724500
 20
19.357925
 30
0.0
 10
36.928699
 20
19.485924
 30
0.0
 10
37.166700
 20
19.592623
 30
0.0
 10
37.438499
 20
19.677925
 30
0.0
 10
37.744400
 20
19.740725
 30
0.0
 10
38.086101
 20
19.778326
 30
0.0
 10
38.463499
 20
19.790913
 30
0.0
 10
38.794199
 20
19.779409
 30
0.0
 10
39.104799
 20
19.745125
 30
0.0
 10
39.395499
 20
19.687924
 30
0.0
 10
39.662399
 20
19.608126
 30
0.0
 10
39.902999
 20
19.504824
 30
0.0
 10
40.117499
 20
19.377926
 30
0.0
 10
40.303100
 20
19.228625
 30
0.0
 10
40.458398
 20
19.056624
 30
0.0
 10
40.583499
 20
18.861925
 30
0.0
 10
40.675199
 20
18.644724
 30
0.0
 10
40.730201
 20
18.403726
 30
0.0
 10
40.748489
 20
18.138925
 30
0.0
 10
40.733599
 20
17.907424
 30
0.0
 10
40.688901
 20
17.690426
 30
0.0
 10
40.614501
 20
17.487926
 30
0.0
 10
40.508499
 20
17.302023
 30
0.0
 10
40.370500
 20
17.135024
 30
0.0
 10
40.200501
 20
16.986925
 30
0.0
 10
39.997400
 20
16.859324
 30
0.0
 10
39.760099
 20
16.752726
 30
0.0
 10
39.488499
 20
16.666924
 30
0.0
 10
39.182201
 20
16.604725
 30
0.0
 10
38.840500
 20
16.567325
 30
0.0
 10
38.463499
 20
16.554936
 30
0.0
 10
38.132701
 20
16.566524
 30
0.0
  0
LWPOLYLINE
  5
120
100
AcDbEntity
  8
0
 62
5
100
AcDbPolyline
 90
25
 70
0
 10
39.545500
 20
17.316925
 30
0.0
 10
39.654500
 20
17.359924
 30
0.0
 10
39.757500
 20
17.408923
 30
0.0
 10
39.852800
 20
17.465023
 30
0.0
 10
39.938799
 20
17.528024
 30
0.0
 10
40.015499
 20
17.597925
 30
0.0
 10
40.081601
 20
17.675225
 30
0.0
 10
40.137300
 20
17.759223
 30
0.0
 10
40.182501
 20
17.849924
 30
0.0
 10
40.215301
 20
17.948925
 30
0.0
 10
40.234887
 20
18.056623
 30
0.0
 10
40.241505
 20
18.172924
 30
0.0
 10
40.228997
 20
18.322226
 30
0.0
 10
40.191698
 20
18.462225
 30
0.0
 10
40.129500
 20
18.592925
 30
0.0
 10
40.042200
 20
18.712725
 30
0.0
 10
39.930801
 20
18.820026
 30
0.0
 10
39.795501
 20
18.914923
 30
0.0
 10
39.635701
 20
18.996725
 30
0.0
 10
39.452400
 20
19.064724
 30
0.0
 10
39.245500
 20
19.118925
 30
0.0
 10
39.014600
 20
19.158924
 30
0.0
 10
38.760600
 20
19.182913
 30
0.0
 10
38.483500
 20
19.190939
 30
0.0
 10
38.406400
 20
19.189796
 30
0.0
  0
LWPOLYLINE
  5
121
100
AcDbEntity
  8
0
 62
5
100
AcDbPolyline
 90
5
 70
0
 10
38.406400
 20
19.189923
 30
0.0
 10
38.329701
 20
19.186932
 30
0.0
 10
38.030500
 20
19.163922
 30
0.0
 10
39.430500
 20
17.279925
 30
0.0
 10
39.545500
 20
17.316925
 30
0.0
  0
LWPOLYLINE
  5
122
100
AcDbEntity
  8
0
 62
5
100
AcDbPolyline
 90
28
 70
0
 10
38.723799
 20
17.158124
 30
0.0
 10
38.858500
 20
17.167917
 30
0.0
 10
37.465500
 20
19.051925
 30
0.0
 10
37.353000
 20
19.014325
 30
0.0
 10
37.247299
 20
18.971023
 30
0.0
 10
37.148499
 20
18.921925
 30
0.0
 10
37.057499
 20
18.866423
 30
0.0
 10
36.975201
 20
18.804126
 30
0.0
 10
36.901501
 20
18.734925
 30
0.0
 10
36.837301
 20
18.658823
 30
0.0
 10
36.783301
 20
18.575825
 30
0.0
 10
36.739500
 20
18.485926
 30
0.0
 10
36.707301
 20
18.388923
 30
0.0
 10
36.687997
 20
18.284625
 30
0.0
 10
36.681509
 20
18.172924
 30
0.0
 10
36.694087
 20
18.023025
 30
0.0
 10
36.731699
 20
17.882724
 30
0.0
 10
36.794499
 20
17.751925
 30
0.0
 10
36.881500
 20
17.632124
 30
0.0
 10
36.993201
 20
17.524824
 30
0.0
 10
37.129500
 20
17.429924
 30
0.0
 10
37.289901
 20
17.348025
 30
0.0
 10
37.474000
 20
17.279725
 30
0.0
 10
37.681501
 20
17.224926
 30
0.0
 10
37.912300
 20
17.185423
 30
0.0
 10
38.166000
 20
17.161829
 30
0.0
 10
38.442499
 20
17.153921
 30
0.0
 10
38.723799
 20
17.158129
 30
0.0
  0
LWPOLYLINE
  5
123
100
AcDbEntity
  8
0
 62
5
100
AcDbPolyline
 90
49
 70
0
 10
135.109001
 20
17.584824
 30
0.0
 10
135.034000
 20
17.599415
 30
0.0
 10
134.962999
 20
17.623920
 30
0.0
 10
134.897001
 20
17.657324
 30
0.0
 10
134.835999
 20
17.697724
 30
0.0
 10
134.780999
 20
17.744923
 30
0.0
 10
134.732999
 20
17.799025
 30
0.0
 10
134.693000
 20
17.858723
 30
0.0
 10
134.659000
 20
17.923925
 30
0.0
 10
134.633995
 20
17.993823
 30
0.0
 10
134.619015
 20
18.067424
 30
0.0
 10
134.614006
 20
18.144925
 30
0.0
 10
134.618995
 20
18.220925
 30
0.0
 10
134.633987
 20
18.294223
 30
0.0
 10
134.659006
 20
18.364926
 30
0.0
 10
134.693000
 20
18.431124
 30
0.0
 10
134.732999
 20
18.491124
 30
0.0
 10
134.780999
 20
18.544924
 30
0.0
 10
134.835999
 20
18.592625
 30
0.0
 10
134.897001
 20
18.632924
 30
0.0
 10
134.962999
 20
18.665924
 30
0.0
 10
135.034000
 20
18.690929
 30
0.0
 10
135.109001
 20
18.705909
 30
0.0
 10
135.185999
 20
18.710919
 30
0.0
 10
135.261999
 20
18.705929
 30
0.0
 10
135.334999
 20
18.690938
 30
0.0
 10
135.403999
 20
18.665919
 30
0.0
 10
135.470000
 20
18.632924
 30
0.0
 10
135.529001
 20
18.592625
 30
0.0
 10
135.582999
 20
18.544924
 30
0.0
 10
135.630999
 20
18.491124
 30
0.0
 10
135.671001
 20
18.431124
 30
0.0
 10
135.703999
 20
18.364926
 30
0.0
 10
135.729004
 20
18.294223
 30
0.0
 10
135.744015
 20
18.220925
 30
0.0
 10
135.748008
 20
18.144925
 30
0.0
 10
135.743992
 20
18.067424
 30
0.0
 10
135.728987
 20
17.993823
 30
0.0
 10
135.703996
 20
17.923925
 30
0.0
 10
135.671001
 20
17.858723
 30
0.0
 10
135.630999
 20
17.799025
 30
0.0
 10
135.582999
 20
17.744923
 30
0.0
 10
135.529001
 20
17.697724
 30
0.0
 10
135.470000
 20
17.657324
 30
0.0
 10
135.403999
 20
17.623926
 30
0.0
 10
135.334999
 20
17.599429
 30
0.0
 10
135.261999
 20
17.584832
 30
0.0
 10
135.185999
 20
17.579913
 30
0.0
 10
135.109001
 20
17.584835
 30
0.0
  0
LWPOLYLINE
  5
124
100
AcDbEntity
  8
0
 62
5
100
AcDbPolyline
 90
49
 70
0
 10
97.108800
 20
17.584824
 30
0.0
 10
97.034500
 20
17.599415
 30
0.0
 10
96.963501
 20
17.623920
 30
0.0
 10
96.897001
 20
17.657324
 30
0.0
 10
96.836399
 20
17.697724
 30
0.0
 10
96.781501
 20
17.744923
 30
0.0
 10
96.733301
 20
17.799025
 30
0.0
 10
96.692601
 20
17.858723
 30
0.0
 10
96.659500
 20
17.923925
 30
0.0
 10
96.634495
 20
17.993823
 30
0.0
 10
96.619486
 20
18.067424
 30
0.0
 10
96.614505
 20
18.144925
 30
0.0
 10
96.619495
 20
18.220925
 30
0.0
 10
96.634514
 20
18.294223
 30
0.0
 10
96.659505
 20
18.364926
 30
0.0
 10
96.692601
 20
18.431124
 30
0.0
 10
96.733301
 20
18.491124
 30
0.0
 10
96.781501
 20
18.544924
 30
0.0
 10
96.836399
 20
18.592625
 30
0.0
 10
96.897001
 20
18.632924
 30
0.0
 10
96.963501
 20
18.665924
 30
0.0
 10
97.034500
 20
18.690929
 30
0.0
 10
97.108800
 20
18.705909
 30
0.0
 10
97.186499
 20
18.710919
 30
0.0
 10
97.262301
 20
18.705929
 30
0.0
 10
97.334900
 20
18.690938
 30
0.0
 10
97.404499
 20
18.665919
 30
0.0
 10
97.469700
 20
18.632924
 30
0.0
 10
97.529399
 20
18.592625
 30
0.0
 10
97.583501
 20
18.544924
 30
0.0
 10
97.631199
 20
18.491124
 30
0.0
 10
97.671501
 20
18.431124
 30
0.0
 10
97.704501
 20
18.364926
 30
0.0
 10
97.728913
 20
18.294223
 30
0.0
 10
97.743603
 20
18.220925
 30
0.0
 10
97.748511
 20
18.144925
 30
0.0
 10
97.743589
 20
18.067424
 30
0.0
 10
97.728896
 20
17.993823
 30
0.0
 10
97.704487
 20
17.923925
 30
0.0
 10
97.671501
 20
17.858723
 30
0.0
 10
97.631199
 20
17.799025
 30
0.0
 10
97.583501
 20
17.744923
 30
0.0
 10
97.529399
 20
17.697724
 30
0.0
 10
97.469700
 20
17.657324
 30
0.0
 10
97.404499
 20
17.623926
 30
0.0
 10
97.334900
 20
17.599429
 30
0.0
 10
97.262301
 20
17.584832
 30
0.0
 10
97.186499
 20
17.579913
 30
0.0
 10
97.108800
 20
17.584835
 30
0.0
  0
LWPOLYLINE
  5
125
100
AcDbEntity
  8
0
 62
5
100
AcDbPolyline
 90
49
 70
0
 10
114.133001
 20
14.693926
 30
0.0
 10
113.822000
 20
14.728611
 30
0.0
 10
113.531001
 20
14.786325
 30
0.0
 10
113.262001
 20
14.867024
 30
0.0
 10
113.021000
 20
14.970326
 30
0.0
 10
112.806999
 20
15.096324
 30
0.0
 10
112.619999
 20
15.245224
 30
0.0
 10
112.465000
 20
15.417225
 30
0.0
 10
112.340001
 20
15.612325
 30
0.0
 10
112.247999
 20
15.830325
 30
0.0
 10
112.192999
 20
16.071024
 30
0.0
 10
112.174994
 20
16.334326
 30
0.0
 10
112.190014
 20
16.565226
 30
0.0
 10
112.235000
 20
16.781924
 30
0.0
 10
112.310000
 20
16.984326
 30
0.0
 10
112.415001
 20
17.170225
 30
0.0
 10
112.554001
 20
17.337225
 30
0.0
 10
112.725000
 20
17.485324
 30
0.0
 10
112.929001
 20
17.613326
 30
0.0
 10
113.166999
 20
17.720025
 30
0.0
 10
113.438999
 20
17.805324
 30
0.0
 10
113.744000
 20
17.868124
 30
0.0
 10
114.085999
 20
17.905824
 30
0.0
 10
114.463999
 20
17.918326
 30
0.0
 10
114.793999
 20
17.906924
 30
0.0
 10
115.104999
 20
17.872626
 30
0.0
 10
115.395000
 20
17.815323
 30
0.0
 10
115.661999
 20
17.735525
 30
0.0
 10
115.903000
 20
17.632223
 30
0.0
 10
116.117000
 20
17.505325
 30
0.0
 10
116.302999
 20
17.356024
 30
0.0
 10
116.458001
 20
17.184023
 30
0.0
 10
116.583000
 20
16.989324
 30
0.0
 10
116.674999
 20
16.772126
 30
0.0
 10
116.730001
 20
16.531125
 30
0.0
 10
116.748007
 20
16.266324
 30
0.0
 10
116.734003
 20
16.034924
 30
0.0
 10
116.689000
 20
15.817924
 30
0.0
 10
116.613999
 20
15.615325
 30
0.0
 10
116.507999
 20
15.429425
 30
0.0
 10
116.370001
 20
15.262426
 30
0.0
 10
116.199999
 20
15.114324
 30
0.0
 10
115.996999
 20
14.986825
 30
0.0
 10
115.760000
 20
14.880125
 30
0.0
 10
115.488000
 20
14.794324
 30
0.0
 10
115.182001
 20
14.732139
 30
0.0
 10
114.840001
 20
14.694829
 30
0.0
 10
114.463999
 20
14.682411
 30
0.0
 10
114.133001
 20
14.693898
 30
0.0
  0
LWPOLYLINE
  5
126
100
AcDbEntity
  8
0
 62
5
100
AcDbPolyline
 90
25
 70
0
 10
115.545001
 20
15.444324
 30
0.0
 10
115.654001
 20
15.487323
 30
0.0
 10
115.757000
 20
15.536325
 30
0.0
 10
115.853001
 20
15.592425
 30
0.0
 10
115.939000
 20
15.655426
 30
0.0
 10
116.015000
 20
15.725324
 30
0.0
 10
116.081999
 20
15.802723
 30
0.0
 10
116.136999
 20
15.886724
 30
0.0
 10
116.181999
 20
15.977326
 30
0.0
 10
116.214999
 20
16.076324
 30
0.0
 10
116.235009
 20
16.184025
 30
0.0
 10
116.241012
 20
16.300323
 30
0.0
 10
116.229006
 20
16.449723
 30
0.0
 10
116.192001
 20
16.589725
 30
0.0
 10
116.129000
 20
16.720324
 30
0.0
 10
116.042000
 20
16.840124
 30
0.0
 10
115.930999
 20
16.947425
 30
0.0
 10
115.794999
 20
17.042325
 30
0.0
 10
115.636000
 20
17.124124
 30
0.0
 10
115.452000
 20
17.192123
 30
0.0
 10
115.245001
 20
17.246324
 30
0.0
 10
115.014999
 20
17.286326
 30
0.0
 10
114.760999
 20
17.310315
 30
0.0
 10
114.484000
 20
17.318338
 30
0.0
 10
114.406000
 20
17.317195
 30
0.0
  0
LWPOLYLINE
  5
127
100
AcDbEntity
  8
0
 62
5
100
AcDbPolyline
 90
5
 70
0
 10
114.406000
 20
17.317325
 30
0.0
 10
114.330000
 20
17.314334
 30
0.0
 10
114.031000
 20
17.291324
 30
0.0
 10
115.430001
 20
15.407324
 30
0.0
 10
115.545001
 20
15.444324
 30
0.0
  0
LWPOLYLINE
  5
128
100
AcDbEntity
  8
0
 62
5
100
AcDbPolyline
 90
28
 70
0
 10
114.723999
 20
15.285624
 30
0.0
 10
114.858001
 20
15.295333
 30
0.0
 10
113.465999
 20
17.179324
 30
0.0
 10
113.353001
 20
17.141825
 30
0.0
 10
113.247001
 20
17.098425
 30
0.0
 10
113.148999
 20
17.049324
 30
0.0
 10
113.057999
 20
16.993924
 30
0.0
 10
112.975001
 20
16.931525
 30
0.0
 10
112.902001
 20
16.862324
 30
0.0
 10
112.837000
 20
16.786225
 30
0.0
 10
112.782999
 20
16.703224
 30
0.0
 10
112.740000
 20
16.613325
 30
0.0
 10
112.706999
 20
16.516325
 30
0.0
 10
112.688006
 20
16.412024
 30
0.0
 10
112.681989
 20
16.300323
 30
0.0
 10
112.693995
 20
16.150424
 30
0.0
 10
112.731999
 20
16.010126
 30
0.0
 10
112.794999
 20
15.879324
 30
0.0
 10
112.882000
 20
15.759625
 30
0.0
 10
112.993001
 20
15.652225
 30
0.0
 10
113.130000
 20
15.557325
 30
0.0
 10
113.290000
 20
15.475425
 30
0.0
 10
113.474000
 20
15.407124
 30
0.0
 10
113.682001
 20
15.352325
 30
0.0
 10
113.912001
 20
15.312924
 30
0.0
 10
114.166001
 20
15.289217
 30
0.0
 10
114.442999
 20
15.281323
 30
0.0
 10
114.723999
 20
15.285613
 30
0.0
  0
LWPOLYLINE
  5
129
100
AcDbEntity
  8
0
 62
5
100
AcDbPolyline
 90
49
 70
0
 10
19.132700
 20
14.693926
 30
0.0
 10
18.821700
 20
14.728611
 30
0.0
 10
18.530500
 20
14.786325
 30
0.0
 10
18.262100
 20
14.867024
 30
0.0
 10
18.020700
 20
14.970326
 30
0.0
 10
17.806500
 20
15.096324
 30
0.0
 10
17.620400
 20
15.245224
 30
0.0
 10
17.464700
 20
15.417225
 30
0.0
 10
17.339500
 20
15.612325
 30
0.0
 10
17.247800
 20
15.830325
 30
0.0
 10
17.192800
 20
16.071024
 30
0.0
 10
17.174501
 20
16.334326
 30
0.0
 10
17.189500
 20
16.565226
 30
0.0
 10
17.234500
 20
16.781924
 30
0.0
 10
17.309500
 20
16.984326
 30
0.0
 10
17.415200
 20
17.170225
 30
0.0
 10
17.553500
 20
17.337225
 30
0.0
 10
17.724500
 20
17.485324
 30
0.0
 10
17.928700
 20
17.613326
 30
0.0
 10
18.166700
 20
17.720025
 30
0.0
 10
18.438500
 20
17.805324
 30
0.0
 10
18.744400
 20
17.868124
 30
0.0
 10
19.086100
 20
17.905824
 30
0.0
 10
19.463500
 20
17.918326
 30
0.0
 10
19.794200
 20
17.906924
 30
0.0
 10
20.104800
 20
17.872626
 30
0.0
 10
20.395500
 20
17.815323
 30
0.0
 10
20.662400
 20
17.735525
 30
0.0
 10
20.903000
 20
17.632223
 30
0.0
 10
21.117500
 20
17.505325
 30
0.0
 10
21.303100
 20
17.356024
 30
0.0
 10
21.458400
 20
17.184023
 30
0.0
 10
21.583500
 20
16.989324
 30
0.0
 10
21.675200
 20
16.772126
 30
0.0
 10
21.730200
 20
16.531125
 30
0.0
 10
21.748499
 20
16.266324
 30
0.0
 10
21.733599
 20
16.034924
 30
0.0
 10
21.688900
 20
15.817924
 30
0.0
 10
21.614500
 20
15.615325
 30
0.0
 10
21.508500
 20
15.429425
 30
0.0
 10
21.370500
 20
15.262426
 30
0.0
 10
21.200500
 20
15.114324
 30
0.0
 10
20.997400
 20
14.986825
 30
0.0
 10
20.760000
 20
14.880125
 30
0.0
 10
20.488500
 20
14.794324
 30
0.0
 10
20.182100
 20
14.732139
 30
0.0
 10
19.840500
 20
14.694829
 30
0.0
 10
19.463500
 20
14.682411
 30
0.0
 10
19.132700
 20
14.693898
 30
0.0
  0
LWPOLYLINE
  5
12a
100
AcDbEntity
  8
0
 62
5
100
AcDbPolyline
 90
25
 70
0
 10
20.545500
 20
15.444324
 30
0.0
 10
20.654500
 20
15.487323
 30
0.0
 10
20.757500
 20
15.536325
 30
0.0
 10
20.852800
 20
15.592425
 30
0.0
 10
20.938800
 20
15.655426
 30
0.0
 10
21.015500
 20
15.725324
 30
0.0
 10
21.081600
 20
15.802723
 30
0.0
 10
21.137300
 20
15.886724
 30
0.0
 10
21.182500
 20
15.977326
 30
0.0
 10
21.215300
 20
16.076324
 30
0.0
 10
21.234900
 20
16.184025
 30
0.0
 10
21.241501
 20
16.300323
 30
0.0
 10
21.229000
 20
16.449723
 30
0.0
 10
21.191700
 20
16.589725
 30
0.0
 10
21.129500
 20
16.720324
 30
0.0
 10
21.042200
 20
16.840124
 30
0.0
 10
20.930800
 20
16.947425
 30
0.0
 10
20.795500
 20
17.042325
 30
0.0
 10
20.635700
 20
17.124124
 30
0.0
 10
20.452400
 20
17.192123
 30
0.0
 10
20.245500
 20
17.246324
 30
0.0
 10
20.014600
 20
17.286326
 30
0.0
 10
19.760600
 20
17.310315
 30
0.0
 10
19.483500
 20
17.318338
 30
0.0
 10
19.406400
 20
17.317195
 30
0.0
  0
LWPOLYLINE
  5
12b
100
AcDbEntity
  8
0
 62
5
100
AcDbPolyline
 90
5
 70
0
 10
19.406400
 20
17.317325
 30
0.0
 10
19.329700
 20
17.314334
 30
0.0
 10
19.030500
 20
17.291324
 30
0.0
 10
20.430500
 20
15.407324
 30
0.0
 10
20.545500
 20
15.444324
 30
0.0
  0
LWPOLYLINE
  5
12c
100
AcDbEntity
  8
0
 62
5
100
AcDbPolyline
 90
28
 70
0
 10
19.723800
 20
15.285624
 30
0.0
 10
19.858500
 20
15.295333
 30
0.0
 10
18.465500
 20
17.179324
 30
0.0
 10
18.353000
 20
17.141825
 30
0.0
 10
18.247300
 20
17.098425
 30
0.0
 10
18.148500
 20
17.049324
 30
0.0
 10
18.057500
 20
16.993924
 30
0.0
 10
17.975200
 20
16.931525
 30
0.0
 10
17.901500
 20
16.862324
 30
0.0
 10
17.837300
 20
16.786225
 30
0.0
 10
17.783300
 20
16.703224
 30
0.0
 10
17.739500
 20
16.613325
 30
0.0
 10
17.707300
 20
16.516325
 30
0.0
 10
17.687900
 20
16.412024
 30
0.0
 10
17.681499
 20
16.300323
 30
0.0
 10
17.694000
 20
16.150424
 30
0.0
 10
17.731700
 20
16.010126
 30
0.0
 10
17.794500
 20
15.879324
 30
0.0
 10
17.881500
 20
15.759625
 30
0.0
 10
17.993200
 20
15.652225
 30
0.0
 10
18.129500
 20
15.557325
 30
0.0
 10
18.289900
 20
15.475425
 30
0.0
 10
18.473900
 20
15.407124
 30
0.0
 10
18.681500
 20
15.352325
 30
0.0
 10
18.912300
 20
15.312924
 30
0.0
 10
19.165900
 20
15.289217
 30
0.0
 10
19.442500
 20
15.281323
 30
0.0
 10
19.723800
 20
15.285613
 30
0.0
  0
LWPOLYLINE
  5
12d
100
AcDbEntity
  8
0
 62
5
100
AcDbPolyline
 90
49
 70
0
 10
57.132700
 20
14.693926
 30
0.0
 10
56.821699
 20
14.728611
 30
0.0
 10
56.530500
 20
14.786325
 30
0.0
 10
56.262101
 20
14.867024
 30
0.0
 10
56.020699
 20
14.970326
 30
0.0
 10
55.806501
 20
15.096324
 30
0.0
 10
55.620401
 20
15.245224
 30
0.0
 10
55.464699
 20
15.417225
 30
0.0
 10
55.339499
 20
15.612325
 30
0.0
 10
55.247800
 20
15.830325
 30
0.0
 10
55.192800
 20
16.071024
 30
0.0
 10
55.174512
 20
16.334326
 30
0.0
 10
55.189487
 20
16.565226
 30
0.0
 10
55.234499
 20
16.781924
 30
0.0
 10
55.309499
 20
16.984326
 30
0.0
 10
55.415200
 20
17.170225
 30
0.0
 10
55.553500
 20
17.337225
 30
0.0
 10
55.724501
 20
17.485324
 30
0.0
 10
55.928700
 20
17.613326
 30
0.0
 10
56.166701
 20
17.720025
 30
0.0
 10
56.438501
 20
17.805324
 30
0.0
 10
56.744399
 20
17.868124
 30
0.0
 10
57.086099
 20
17.905824
 30
0.0
 10
57.463501
 20
17.918326
 30
0.0
 10
57.794200
 20
17.906924
 30
0.0
 10
58.104800
 20
17.872626
 30
0.0
 10
58.395500
 20
17.815323
 30
0.0
 10
58.662401
 20
17.735525
 30
0.0
 10
58.903001
 20
17.632223
 30
0.0
 10
59.117501
 20
17.505325
 30
0.0
 10
59.303099
 20
17.356024
 30
0.0
 10
59.458400
 20
17.184023
 30
0.0
 10
59.583501
 20
16.989324
 30
0.0
 10
59.675200
 20
16.772126
 30
0.0
 10
59.730200
 20
16.531125
 30
0.0
 10
59.748488
 20
16.266324
 30
0.0
 10
59.733598
 20
16.034924
 30
0.0
 10
59.688899
 20
15.817924
 30
0.0
 10
59.614500
 20
15.615325
 30
0.0
 10
59.508500
 20
15.429425
 30
0.0
 10
59.370499
 20
15.262426
 30
0.0
 10
59.200500
 20
15.114324
 30
0.0
 10
58.997401
 20
14.986825
 30
0.0
 10
58.760100
 20
14.880125
 30
0.0
 10
58.488501
 20
14.794324
 30
0.0
 10
58.182200
 20
14.732139
 30
0.0
 10
57.840499
 20
14.694829
 30
0.0
 10
57.463501
 20
14.682411
 30
0.0
 10
57.132700
 20
14.693898
 30
0.0
  0
LWPOLYLINE
  5
12e
100
AcDbEntity
  8
0
 62
5
100
AcDbPolyline
 90
25
 70
0
 10
58.545499
 20
15.444324
 30
0.0
 10
58.654501
 20
15.487323
 30
0.0
 10
58.757501
 20
15.536325
 30
0.0
 10
58.852799
 20
15.592425
 30
0.0
 10
58.938801
 20
15.655426
 30
0.0
 10
59.015500
 20
15.725324
 30
0.0
 10
59.081599
 20
15.802723
 30
0.0
 10
59.137299
 20
15.886724
 30
0.0
 10
59.182500
 20
15.977326
 30
0.0
 10
59.215299
 20
16.076324
 30
0.0
 10
59.234886
 20
16.184025
 30
0.0
 10
59.241504
 20
16.300323
 30
0.0
 10
59.228998
 20
16.449723
 30
0.0
 10
59.191700
 20
16.589725
 30
0.0
 10
59.129501
 20
16.720324
 30
0.0
 10
59.042201
 20
16.840124
 30
0.0
 10
58.930800
 20
16.947425
 30
0.0
 10
58.795499
 20
17.042325
 30
0.0
 10
58.635700
 20
17.124124
 30
0.0
 10
58.452399
 20
17.192123
 30
0.0
 10
58.245499
 20
17.246324
 30
0.0
 10
58.014599
 20
17.286326
 30
0.0
 10
57.760599
 20
17.310315
 30
0.0
 10
57.483499
 20
17.318338
 30
0.0
 10
57.406399
 20
17.317195
 30
0.0
  0
LWPOLYLINE
  5
12f
100
AcDbEntity
  8
0
 62
5
100
AcDbPolyline
 90
5
 70
0
 10
57.406399
 20
17.317325
 30
0.0
 10
57.329699
 20
17.314334
 30
0.0
 10
57.030499
 20
17.291324
 30
0.0
 10
58.430499
 20
15.407324
 30
0.0
 10
58.545499
 20
15.444324
 30
0.0
  0
LWPOLYLINE
  5
130
100
AcDbEntity
  8
0
 62
5
100
AcDbPolyline
 90
28
 70
0
 10
57.723800
 20
15.285624
 30
0.0
 10
57.858499
 20
15.295333
 30
0.0
 10
56.465501
 20
17.179324
 30
0.0
 10
56.352999
 20
17.141825
 30
0.0
 10
56.247301
 20
17.098425
 30
0.0
 10
56.148501
 20
17.049324
 30
0.0
 10
56.057501
 20
16.993924
 30
0.0
 10
55.975199
 20
16.931525
 30
0.0
 10
55.901500
 20
16.862324
 30
0.0
 10
55.837300
 20
16.786225
 30
0.0
 10
55.783299
 20
16.703224
 30
0.0
 10
55.739498
 20
16.613325
 30
0.0
 10
55.707300
 20
16.516325
 30
0.0
 10
55.687996
 20
16.412024
 30
0.0
 10
55.681507
 20
16.300323
 30
0.0
 10
55.694086
 20
16.150424
 30
0.0
 10
55.731701
 20
16.010126
 30
0.0
 10
55.794501
 20
15.879324
 30
0.0
 10
55.881499
 20
15.759625
 30
0.0
 10
55.993199
 20
15.652225
 30
0.0
 10
56.129499
 20
15.557325
 30
0.0
 10
56.289900
 20
15.475425
 30
0.0
 10
56.473999
 20
15.407124
 30
0.0
 10
56.681500
 20
15.352325
 30
0.0
 10
56.912301
 20
15.312924
 30
0.0
 10
57.165999
 20
15.289217
 30
0.0
 10
57.442501
 20
15.281323
 30
0.0
 10
57.723800
 20
15.285613
 30
0.0
  0
LWPOLYLINE
  5
131
100
AcDbEntity
  8
0
 62
5
100
AcDbPolyline
 90
49
 70
0
 10
133.132999
 20
12.821325
 30
0.0
 10
132.821999
 20
12.856038
 30
0.0
 10
132.531000
 20
12.913837
 30
0.0
 10
132.261999
 20
12.994412
 30
0.0
 10
132.021001
 20
13.097818
 30
0.0
 10
131.807001
 20
13.223830
 30
0.0
 10
131.620000
 20
13.372731
 30
0.0
 10
131.465001
 20
13.544717
 30
0.0
 10
131.339999
 20
13.739817
 30
0.0
 10
131.248000
 20
13.957834
 30
0.0
 10
131.193001
 20
14.198428
 30
0.0
 10
131.174995
 20
14.461826
 30
0.0
 10
131.189987
 20
14.692712
 30
0.0
 10
131.235001
 20
14.909323
 30
0.0
 10
131.309999
 20
15.111824
 30
0.0
 10
131.415000
 20
15.297723
 30
0.0
 10
131.554000
 20
15.464726
 30
0.0
 10
131.725001
 20
15.612824
 30
0.0
 10
131.929000
 20
15.740824
 30
0.0
 10
132.167001
 20
15.847424
 30
0.0
 10
132.439001
 20
15.932825
 30
0.0
 10
132.744001
 20
15.995523
 30
0.0
 10
133.086001
 20
16.033225
 30
0.0
 10
133.464001
 20
16.045813
 30
0.0
 10
133.794000
 20
16.034309
 30
0.0
 10
134.105001
 20
16.000025
 30
0.0
 10
134.395001
 20
15.942824
 30
0.0
 10
134.662000
 20
15.863026
 30
0.0
 10
134.903001
 20
15.759724
 30
0.0
 10
135.116999
 20
15.632826
 30
0.0
 10
135.303000
 20
15.483426
 30
0.0
 10
135.458000
 20
15.311425
 30
0.0
 10
135.582999
 20
15.116825
 30
0.0
 10
135.675000
 20
14.899525
 30
0.0
 10
135.730000
 20
14.658535
 30
0.0
 10
135.748006
 20
14.393811
 30
0.0
 10
135.734002
 20
14.162332
 30
0.0
 10
135.689001
 20
13.945331
 30
0.0
 10
135.614001
 20
13.742837
 30
0.0
 10
135.508001
 20
13.556937
 30
0.0
 10
135.370000
 20
13.389918
 30
0.0
 10
135.200001
 20
13.241836
 30
0.0
 10
134.997001
 20
13.114215
 30
0.0
 10
134.759999
 20
13.007620
 30
0.0
 10
134.487999
 20
12.921824
 30
0.0
 10
134.182000
 20
12.859622
 30
0.0
 10
133.840000
 20
12.822228
 30
0.0
 10
133.464001
 20
12.809810
 30
0.0
 10
133.132999
 20
12.821381
 30
0.0
  0
LWPOLYLINE
  5
132
100
AcDbEntity
  8
0
 62
5
100
AcDbPolyline
 90
25
 70
0
 10
134.544999
 20
13.571838
 30
0.0
 10
134.653999
 20
13.614821
 30
0.0
 10
134.756999
 20
13.663815
 30
0.0
 10
134.853000
 20
13.719920
 30
0.0
 10
134.938999
 20
13.782912
 30
0.0
 10
135.015001
 20
13.852819
 30
0.0
 10
135.082001
 20
13.930120
 30
0.0
 10
135.137000
 20
14.014137
 30
0.0
 10
135.182000
 20
14.104815
 30
0.0
 10
135.215001
 20
14.203819
 30
0.0
 10
135.235010
 20
14.311430
 30
0.0
 10
135.241010
 20
14.427818
 30
0.0
 10
135.229005
 20
14.577114
 30
0.0
 10
135.192000
 20
14.717124
 30
0.0
 10
135.128999
 20
14.847824
 30
0.0
 10
135.042001
 20
14.967523
 30
0.0
 10
134.931000
 20
15.074923
 30
0.0
 10
134.795000
 20
15.169823
 30
0.0
 10
134.635999
 20
15.251625
 30
0.0
 10
134.451999
 20
15.319525
 30
0.0
 10
134.245000
 20
15.373825
 30
0.0
 10
134.015000
 20
15.413824
 30
0.0
 10
133.761000
 20
15.437813
 30
0.0
 10
133.483999
 20
15.445839
 30
0.0
 10
133.405999
 20
15.444696
 30
0.0
  0
LWPOLYLINE
  5
133
100
AcDbEntity
  8
0
 62
5
100
AcDbPolyline
 90
5
 70
0
 10
133.405999
 20
15.444826
 30
0.0
 10
133.329999
 20
15.441834
 30
0.0
 10
133.030999
 20
15.418825
 30
0.0
 10
134.430000
 20
13.534811
 30
0.0
 10
134.544999
 20
13.571838
 30
0.0
  0
LWPOLYLINE
  5
134
100
AcDbEntity
  8
0
 62
5
100
AcDbPolyline
 90
26
 70
0
 10
133.724001
 20
13.413032
 30
0.0
 10
133.858000
 20
13.422910
 30
0.0
 10
132.466001
 20
15.306825
 30
0.0
 10
132.352999
 20
15.269225
 30
0.0
 10
132.246999
 20
15.225926
 30
0.0
 10
132.149001
 20
15.176825
 30
0.0
 10
132.058001
 20
15.121326
 30
0.0
 10
131.974999
 20
15.059025
 30
0.0
 10
131.902000
 20
14.989825
 30
0.0
 10
131.837001
 20
14.913723
 30
0.0
 10
131.783001
 20
14.830725
 30
0.0
 10
131.740001
 20
14.740831
 30
0.0
 10
131.707001
 20
14.643831
 30
0.0
 10
131.688007
 20
14.539437
 30
0.0
 10
131.681988
 20
14.427818
 30
0.0
 10
131.693993
 20
14.277930
 30
0.0
 10
131.732000
 20
14.137638
 30
0.0
 10
131.795001
 20
14.006828
 30
0.0
 10
131.881999
 20
13.887024
 30
0.0
 10
131.992999
 20
13.779723
 30
0.0
 10
132.129998
 20
13.684812
 30
0.0
 10
132.289999
 20
13.602911
 30
0.0
 10
132.473999
 20
13.534529
 30
0.0
 10
132.682000
 20
13.479834
 30
0.0
 10
132.912000
 20
13.440323
 30
0.0
 10
133.166000
 20
13.416616
 30
0.0
  0
LWPOLYLINE
  5
135
100
AcDbEntity
  8
0
 62
5
100
AcDbPolyline
 90
3
 70
0
 10
133.166000
 20
13.416729
 30
0.0
 10
133.443001
 20
13.408827
 30
0.0
 10
133.724001
 20
13.413060
 30
0.0
  0
LWPOLYLINE
  5
136
100
AcDbEntity
  8
0
 62
5
100
AcDbPolyline
 90
49
 70
0
 10
95.132700
 20
12.821325
 30
0.0
 10
94.821700
 20
12.856038
 30
0.0
 10
94.530500
 20
12.913837
 30
0.0
 10
94.262101
 20
12.994412
 30
0.0
 10
94.020699
 20
13.097818
 30
0.0
 10
93.806501
 20
13.223830
 30
0.0
 10
93.620401
 20
13.372731
 30
0.0
 10
93.464699
 20
13.544717
 30
0.0
 10
93.339499
 20
13.739817
 30
0.0
 10
93.247800
 20
13.957834
 30
0.0
 10
93.192800
 20
14.198428
 30
0.0
 10
93.174512
 20
14.461826
 30
0.0
 10
93.189515
 20
14.692712
 30
0.0
 10
93.234502
 20
14.909323
 30
0.0
 10
93.309499
 20
15.111824
 30
0.0
 10
93.415200
 20
15.297723
 30
0.0
 10
93.553500
 20
15.464726
 30
0.0
 10
93.724501
 20
15.612824
 30
0.0
 10
93.928700
 20
15.740824
 30
0.0
 10
94.166701
 20
15.847424
 30
0.0
 10
94.438501
 20
15.932825
 30
0.0
 10
94.744399
 20
15.995523
 30
0.0
 10
95.086099
 20
16.033225
 30
0.0
 10
95.463501
 20
16.045813
 30
0.0
 10
95.794201
 20
16.034309
 30
0.0
 10
96.104800
 20
16.000025
 30
0.0
 10
96.395500
 20
15.942824
 30
0.0
 10
96.662401
 20
15.863026
 30
0.0
 10
96.903001
 20
15.759724
 30
0.0
 10
97.117501
 20
15.632826
 30
0.0
 10
97.303099
 20
15.483426
 30
0.0
 10
97.458400
 20
15.311425
 30
0.0
 10
97.583501
 20
15.116825
 30
0.0
 10
97.675200
 20
14.899525
 30
0.0
 10
97.730200
 20
14.658535
 30
0.0
 10
97.748488
 20
14.393811
 30
0.0
 10
97.733598
 20
14.162332
 30
0.0
 10
97.688900
 20
13.945331
 30
0.0
 10
97.614500
 20
13.742837
 30
0.0
 10
97.508500
 20
13.556937
 30
0.0
 10
97.370499
 20
13.389918
 30
0.0
 10
97.200500
 20
13.241836
 30
0.0
 10
96.997399
 20
13.114215
 30
0.0
 10
96.760101
 20
13.007620
 30
0.0
 10
96.488501
 20
12.921824
 30
0.0
 10
96.182200
 20
12.859622
 30
0.0
 10
95.840499
 20
12.822228
 30
0.0
 10
95.463501
 20
12.809810
 30
0.0
 10
95.132700
 20
12.821381
 30
0.0
  0
LWPOLYLINE
  5
137
100
AcDbEntity
  8
0
 62
5
100
AcDbPolyline
 90
25
 70
0
 10
96.545499
 20
13.571838
 30
0.0
 10
96.654501
 20
13.614821
 30
0.0
 10
96.757501
 20
13.663815
 30
0.0
 10
96.852799
 20
13.719920
 30
0.0
 10
96.938801
 20
13.782912
 30
0.0
 10
97.015500
 20
13.852819
 30
0.0
 10
97.081600
 20
13.930120
 30
0.0
 10
97.137299
 20
14.014137
 30
0.0
 10
97.182500
 20
14.104815
 30
0.0
 10
97.215300
 20
14.203819
 30
0.0
 10
97.234914
 20
14.311430
 30
0.0
 10
97.241504
 20
14.427818
 30
0.0
 10
97.228999
 20
14.577114
 30
0.0
 10
97.191700
 20
14.717124
 30
0.0
 10
97.129501
 20
14.847824
 30
0.0
 10
97.042201
 20
14.967523
 30
0.0
 10
96.930800
 20
15.074923
 30
0.0
 10
96.795500
 20
15.169823
 30
0.0
 10
96.635700
 20
15.251625
 30
0.0
 10
96.452399
 20
15.319525
 30
0.0
 10
96.245499
 20
15.373825
 30
0.0
 10
96.014599
 20
15.413824
 30
0.0
 10
95.760599
 20
15.437813
 30
0.0
 10
95.483499
 20
15.445839
 30
0.0
 10
95.406399
 20
15.444696
 30
0.0
  0
LWPOLYLINE
  5
138
100
AcDbEntity
  8
0
 62
5
100
AcDbPolyline
 90
5
 70
0
 10
95.406399
 20
15.444826
 30
0.0
 10
95.329700
 20
15.441834
 30
0.0
 10
95.030499
 20
15.418825
 30
0.0
 10
96.430499
 20
13.534811
 30
0.0
 10
96.545499
 20
13.571838
 30
0.0
  0
LWPOLYLINE
  5
139
100
AcDbEntity
  8
0
 62
5
100
AcDbPolyline
 90
26
 70
0
 10
95.723800
 20
13.413032
 30
0.0
 10
95.858499
 20
13.422910
 30
0.0
 10
94.465501
 20
15.306825
 30
0.0
 10
94.352999
 20
15.269225
 30
0.0
 10
94.247301
 20
15.225926
 30
0.0
 10
94.148501
 20
15.176825
 30
0.0
 10
94.057501
 20
15.121326
 30
0.0
 10
93.975199
 20
15.059025
 30
0.0
 10
93.901500
 20
14.989825
 30
0.0
 10
93.837300
 20
14.913723
 30
0.0
 10
93.783300
 20
14.830725
 30
0.0
 10
93.739499
 20
14.740831
 30
0.0
 10
93.707300
 20
14.643831
 30
0.0
 10
93.687996
 20
14.539437
 30
0.0
 10
93.681508
 20
14.427818
 30
0.0
 10
93.694086
 20
14.277930
 30
0.0
 10
93.731701
 20
14.137638
 30
0.0
 10
93.794501
 20
14.006828
 30
0.0
 10
93.881499
 20
13.887024
 30
0.0
 10
93.993200
 20
13.779723
 30
0.0
 10
94.129499
 20
13.684812
 30
0.0
 10
94.289900
 20
13.602911
 30
0.0
 10
94.473999
 20
13.534529
 30
0.0
 10
94.681500
 20
13.479834
 30
0.0
 10
94.912299
 20
13.440323
 30
0.0
 10
95.165999
 20
13.416616
 30
0.0
  0
LWPOLYLINE
  5
13a
100
AcDbEntity
  8
0
 62
5
100
AcDbPolyline
 90
3
 70
0
 10
95.165999
 20
13.416729
 30
0.0
 10
95.442501
 20
13.408827
 30
0.0
 10
95.723800
 20
13.413060
 30
0.0
  0
LWPOLYLINE
  5
13b
100
AcDbEntity
  8
0
 62
5
100
AcDbPolyline
 90
5
 70
0
 10
38.551499
 20
13.408827
 30
0.0
 10
38.551499
 20
15.445825
 30
0.0
 10
39.110499
 20
15.445825
 30
0.0
 10
39.110499
 20
13.408827
 30
0.0
 10
38.551499
 20
13.408827
 30
0.0
  0
LWPOLYLINE
  5
13c
100
AcDbEntity
  8
0
 62
5
100
AcDbPolyline
 90
5
 70
0
 10
57.551501
 20
11.536226
 30
0.0
 10
57.551501
 20
13.573221
 30
0.0
 10
58.110501
 20
13.573221
 30
0.0
 10
58.110501
 20
11.536226
 30
0.0
 10
57.551501
 20
11.536226
 30
0.0
  0
LWPOLYLINE
  5
13d
100
AcDbEntity
  8
0
 62
5
100
AcDbPolyline
 90
5
 70
0
 10
19.551500
 20
11.536226
 30
0.0
 10
19.551500
 20
13.573221
 30
0.0
 10
20.110500
 20
13.573221
 30
0.0
 10
20.110500
 20
11.536226
 30
0.0
 10
19.551500
 20
11.536226
 30
0.0
  0
ENDSEC
  0
SECTION
  2
OBJECTS
  0
DICTIONARY
  5
C
330
0
100
AcDbDictionary
  3
ACAD_GROUP
350
D
  3
ACAD_MLINESTYLE
350
17
  0
DICTIONARY
  5
D
330
C
100
AcDbDictionary
  0
DICTIONARY
  5
1A
330
C
100
AcDbDictionary
  0
DICTIONARY
  5
17
330
C
100
AcDbDictionary
  3
STANDARD
350
18
  0
DICTIONARY
  5
19
330
C
100
AcDbDictionary
  0
ENDSEC
  0
EOF
