  0
SECTION
  2
HEADER
  9
$ACADVER
  1
AC1014
  9
$HANDSEED
  5
FFFF
  9
$MEASUREMENT
 70
     1
  0
ENDSEC
  0
SECTION
  2
TABLES
  0
TABLE
  2
VPORT
  5
8
330
0
100
AcDbSymbolTable
 70
     4
  0
VPORT
  5
2E
330
8
100
AcDbSymbolTableRecord
100
AcDbViewportTableRecord
  2
*ACTIVE
 70
     0
 10
0.0
 20
0.0
 11
1.0
 21
1.0
 12
210.0
 22
148.5
 13
0.0
 23
0.0
 14
10.0
 24
10.0
 15
10.0
 25
10.0
 16
0.0
 26
0.0
 36
1.0
 17
0.0
 27
0.0
 37
0.0
 40
341.0
 41
1.24
 42
50.0
 43
0.0
 44
0.0
 50
0.0
 51
0.0
 71
     0
 72
   100
 73
     1
 74
     3
 75
     0
 76
     0
 77
     0
 78
     0
  0
ENDTAB
  0
TABLE
  2
LTYPE
  5
5
330
0
100
AcDbSymbolTable
 70
     1
  0
LTYPE
  5
14
330
5
100
AcDbSymbolTableRecord
100
AcDbLinetypeTableRecord
  2
BYBLOCK
 70
     0
  3

 72
    65
 73
     0
 40
0.0
  0
LTYPE
  5
15
330
5
100
AcDbSymbolTableRecord
100
AcDbLinetypeTableRecord
  2
BYLAYER
 70
     0
  3

 72
    65
 73
     0
 40
0.0
  0
LTYPE
  5
16
330
5
100
AcDbSymbolTableRecord
100
AcDbLinetypeTableRecord
  2
CONTINUOUS
 70
     0
  3
Solid line
 72
    65
 73
     0
 40
0.0
  0
ENDTAB
  0
TABLE
  2
LAYER
  5
2
100
AcDbSymbolTable
 70
1
  0
LAYER
  5
50
100
AcDbSymbolTableRecord
100
AcDbLayerTableRecord
  2
0
 70
0
  6
CONTINUOUS
  0
ENDTAB
  0
TABLE
  2
STYLE
  5
3
330
0
100
AcDbSymbolTable
 70
     1
  0
STYLE
  5
11
330
3
100
AcDbSymbolTableRecord
100
AcDbTextStyleTableRecord
  2
STANDARD
 70
     0
 40
0.0
 41
1.0
 50
0.0
 71
     0
 42
2.5
  3
txt
  4

  0
ENDTAB
  0
TABLE
  2
VIEW
  5
6
330
0
100
AcDbSymbolTable
 70
     0
  0
ENDTAB
  0
TABLE
  2
UCS
  5
7
330
0
100
AcDbSymbolTable
 70
     0
  0
ENDTAB
  0
TABLE
  2
APPID
  5
9
330
0
100
AcDbSymbolTable
 70
     2
  0
APPID
  5
12
330
9
100
AcDbSymbolTableRecord
100
AcDbRegAppTableRecord
  2
ACAD
 70
     0
  0
ENDTAB
  0
TABLE
  2
DIMSTYLE
  5
A
330
0
100
AcDbSymbolTable
 70
     1
  0
DIMSTYLE
105
27
330
A
100
AcDbSymbolTableRecord
100
AcDbDimStyleTableRecord
  2
ISO-25
 70
     0
  3

  4

  5

  6

  7

 40
1.0
 41
2.5
 42
0.625
 43
3.75
 44
1.25
 45
0.0
 46
0.0
 47
0.0
 48
0.0
140
2.5
141
2.5
142
0.0
143
0.03937007874016
144
1.0
145
0.0
146
1.0
147
0.625
 71
     0
 72
     0
 73
     0
 74
     0
 75
     0
 76
     0
 77
     1
 78
     8
170
     0
171
     3
172
     1
173
     0
174
     0
175
     0
176
     0
177
     0
178
     0
270
     2
271
     2
272
     2
273
     2
274
     3
340
11
275
     0
280
     0
281
     0
282
     0
283
     0
284
     8
285
     0
286
     0
287
     3
288
     0
  0
ENDTAB
  0
TABLE
  2
BLOCK_RECORD
  5
1
330
0
100
AcDbSymbolTable
 70
     1
  0
BLOCK_RECORD
  5
1F
330
1
100
AcDbSymbolTableRecord
100
AcDbBlockTableRecord
  2
*MODEL_SPACE
  0
BLOCK_RECORD
  5
1B
330
1
100
AcDbSymbolTableRecord
100
AcDbBlockTableRecord
  2
*PAPER_SPACE
  0
ENDTAB
  0
ENDSEC
  0
SECTION
  2
BLOCKS
  0
BLOCK
  5
20
330
1F
100
AcDbEntity
  8
0
100
AcDbBlockBegin
  2
*MODEL_SPACE
 70
     0
 10
0.0
 20
0.0
 30
0.0
  3
*MODEL_SPACE
  1

  0
ENDBLK
  5
21
330
1F
100
AcDbEntity
  8
0
100
AcDbBlockEnd
  0
BLOCK
  5
1C
330
1B
100
AcDbEntity
 67
     1
  8
0
100
AcDbBlockBegin
  2
*PAPER_SPACE
  1

  0
ENDBLK
  5
1D
330
1B
100
AcDbEntity
 67
     1
  8
0
100
AcDbBlockEnd
  0
ENDSEC
  0
SECTION
  2
ENTITIES
  0
LWPOLYLINE
  5
100
100
AcDbEntity
  8
0
 62
5
100
AcDbPolyline
 90
5
 70
0
 10
29.999999
 20
15.000007
 30
0.0
 10
20.000000
 20
15.000007
 30
0.0
 10
20.000000
 20
4.999999
 30
0.0
 10
29.999999
 20
4.999999
 30
0.0
 10
29.999999
 20
15.000007
 30
0.0
  0
LWPOLYLINE
  5
101
100
AcDbEntity
  8
0
 62
1
100
AcDbPolyline
 90
5
 70
0
 10
59.999999
 20
15.000007
 30
0.0
 10
49.999999
 20
15.000007
 30
0.0
 10
49.999999
 20
4.999999
 30
0.0
 10
59.999999
 20
4.999999
 30
0.0
 10
59.999999
 20
15.000007
 30
0.0
  0
LWPOLYLINE
  5
102
100
AcDbEntity
  8
0
 62
5
100
AcDbPolyline
 90
40
 70
0
 10
11.375600
 20
7.760189
 30
0.0
 10
11.614200
 20
7.786153
 30
0.0
 10
11.838200
 20
7.829531
 30
0.0
 10
12.045000
 20
7.890406
 30
0.0
 10
12.230700
 20
7.969090
 30
0.0
 10
12.395200
 20
8.065525
 30
0.0
 10
12.538500
 20
8.180277
 30
0.0
 10
12.658800
 20
8.312639
 30
0.0
 10
12.756200
 20
8.462527
 30
0.0
 10
12.828400
 20
8.630506
 30
0.0
 10
12.871800
 20
8.815841
 30
0.0
 10
12.886199
 20
9.018505
 30
0.0
 10
12.874999
 20
9.187838
 30
0.0
 10
12.841300
 20
9.341169
 30
0.0
 10
12.785200
 20
9.478499
 30
0.0
 10
12.711500
 20
9.602281
 30
0.0
 10
12.623400
 20
9.714945
 30
0.0
 10
12.521200
 20
9.816516
 30
0.0
 10
12.407300
 20
9.908859
 30
0.0
 10
12.283000
 20
9.992510
 30
0.0
 10
12.148200
 20
10.067497
 30
0.0
 10
12.007900
 20
10.136218
 30
0.0
 10
11.865600
 20
10.200818
 30
0.0
 10
11.576800
 20
10.320198
 30
0.0
 10
11.293200
 20
10.433511
 30
0.0
 10
11.158900
 20
10.491507
 30
0.0
 10
11.034600
 20
10.553511
 30
0.0
 10
10.920200
 20
10.619495
 30
0.0
 10
10.818500
 20
10.690502
 30
0.0
 10
10.730500
 20
10.767521
 30
0.0
 10
10.656200
 20
10.850494
 30
0.0
 10
10.600700
 20
10.942696
 30
0.0
 10
10.567300
 20
11.046102
 30
0.0
 10
10.556200
 20
11.160515
 30
0.0
 10
10.583499
 20
11.342605
 30
0.0
 10
10.665100
 20
11.498307
 30
0.0
 10
10.801200
 20
11.627508
 30
0.0
 10
10.995800
 20
11.724197
 30
0.0
 10
11.251400
 20
11.782194
 30
0.0
 10
11.568200
 20
11.801385
 30
0.0
  0
LWPOLYLINE
  5
103
100
AcDbEntity
  8
0
 62
5
100
AcDbPolyline
 90
15
 70
0
 10
11.568200
 20
11.801498
 30
0.0
 10
11.733400
 20
11.796983
 30
0.0
 10
11.902500
 20
11.783746
 30
0.0
 10
12.075200
 20
11.761423
 30
0.0
 10
12.250400
 20
11.731507
 30
0.0
 10
12.425400
 20
11.693520
 30
0.0
 10
12.600200
 20
11.647518
 30
0.0
 10
12.600200
 20
12.192517
 30
0.0
 10
12.523300
 20
12.210579
 30
0.0
 10
12.356200
 20
12.243515
 30
0.0
 10
12.179800
 20
12.273317
 30
0.0
 10
12.001200
 20
12.298153
 30
0.0
 10
11.825200
 20
12.315425
 30
0.0
 10
11.658600
 20
12.324399
 30
0.0
 10
11.581200
 20
12.324399
 30
0.0
  0
LWPOLYLINE
  5
104
100
AcDbEntity
  8
0
 62
5
100
AcDbPolyline
 90
45
 70
0
 10
11.581200
 20
12.325500
 30
0.0
 10
11.304000
 20
12.313647
 30
0.0
 10
11.053700
 20
12.278397
 30
0.0
 10
10.830200
 20
12.219497
 30
0.0
 10
10.632900
 20
12.141999
 30
0.0
 10
10.460900
 20
12.049713
 30
0.0
 10
10.314200
 20
11.942496
 30
0.0
 10
10.192000
 20
11.822298
 30
0.0
 10
10.093300
 20
11.690895
 30
0.0
 10
10.018200
 20
11.548514
 30
0.0
 10
9.965450
 20
11.400404
 30
0.0
 10
9.933780
 20
11.250713
 30
0.0
 10
9.923231
 20
11.099499
 30
0.0
 10
9.934341
 20
10.932705
 30
0.0
 10
9.967670
 20
10.781716
 30
0.0
 10
10.023200
 20
10.646504
 30
0.0
 10
10.097400
 20
10.524697
 30
0.0
 10
10.185500
 20
10.414009
 30
0.0
 10
10.287200
 20
10.314497
 30
0.0
 10
10.401600
 20
10.224610
 30
0.0
 10
10.525900
 20
10.142906
 30
0.0
 10
10.660200
 20
10.069500
 30
0.0
 10
10.801100
 20
10.001795
 30
0.0
 10
10.943800
 20
9.937505
 30
0.0
 10
11.088200
 20
9.876517
 30
0.0
 10
11.515200
 20
9.704531
 30
0.0
 10
11.650000
 20
9.647183
 30
0.0
 10
11.774300
 20
9.585856
 30
0.0
 10
11.888200
 20
9.520522
 30
0.0
 10
11.990400
 20
9.450728
 30
0.0
 10
12.078400
 20
9.374726
 30
0.0
 10
12.152200
 20
9.292514
 30
0.0
 10
12.207800
 20
9.201413
 30
0.0
 10
12.241100
 20
9.098741
 30
0.0
 10
12.252200
 20
8.984525
 30
0.0
 10
12.245599
 20
8.877309
 30
0.0
 10
12.225599
 20
8.778305
 30
0.0
 10
12.192200
 20
8.687515
 30
0.0
 10
12.144900
 20
8.605727
 30
0.0
 10
12.081600
 20
8.532405
 30
0.0
 10
12.002200
 20
8.467522
 30
0.0
 10
11.906600
 20
8.412404
 30
0.0
 10
11.794200
 20
8.367079
 30
0.0
 10
11.665200
 20
8.331519
 30
0.0
 10
11.518200
 20
8.305837
 30
0.0
  0
LWPOLYLINE
  5
105
100
AcDbEntity
  8
0
 62
5
100
AcDbPolyline
 90
11
 70
0
 10
11.518200
 20
8.305950
 30
0.0
 10
11.351900
 20
8.290710
 30
0.0
 10
11.166200
 20
8.285545
 30
0.0
 10
10.905800
 20
8.291444
 30
0.0
 10
10.664400
 20
8.309563
 30
0.0
 10
10.442200
 20
8.339506
 30
0.0
 10
10.237100
 20
8.380739
 30
0.0
 10
10.045800
 20
8.431059
 30
0.0
 10
9.868230
 20
8.490523
 30
0.0
 10
9.868230
 20
7.904517
 30
0.0
 10
9.948560
 20
7.884197
 30
0.0
  0
LWPOLYLINE
  5
106
100
AcDbEntity
  8
0
 62
5
100
AcDbPolyline
 90
2
 70
0
 10
9.948560
 20
7.884310
 30
0.0
 10
10.034900
 20
7.864837
 30
0.0
  0
LWPOLYLINE
  5
107
100
AcDbEntity
  8
0
 62
5
100
AcDbPolyline
 90
4
 70
0
 10
10.034900
 20
7.864950
 30
0.0
 10
10.127200
 20
7.846605
 30
0.0
 10
10.224700
 20
7.829305
 30
0.0
 10
10.326300
 20
7.813472
 30
0.0
  0
LWPOLYLINE
  5
108
100
AcDbEntity
  8
0
 62
5
100
AcDbPolyline
 90
2
 70
0
 10
10.326300
 20
7.813613
 30
0.0
 10
10.541700
 20
7.786520
 30
0.0
  0
LWPOLYLINE
  5
109
100
AcDbEntity
  8
0
 62
5
100
AcDbPolyline
 90
3
 70
0
 10
10.541700
 20
7.786407
 30
0.0
 10
10.654000
 20
7.775118
 30
0.0
 10
10.886200
 20
7.757592
 30
0.0
  0
LWPOLYLINE
  5
10a
100
AcDbEntity
  8
0
 62
5
100
AcDbPolyline
 90
2
 70
0
 10
10.886200
 20
7.757733
 30
0.0
 10
11.003900
 20
7.753218
 30
0.0
  0
LWPOLYLINE
  5
10b
100
AcDbEntity
  8
0
 62
5
100
AcDbPolyline
 90
2
 70
0
 10
11.003900
 20
7.753077
 30
0.0
 10
11.122200
 20
7.750255
 30
0.0
  0
LWPOLYLINE
  5
10c
100
AcDbEntity
  8
0
 62
5
100
AcDbPolyline
 90
2
 70
0
 10
11.122200
 20
7.751525
 30
0.0
 10
11.375600
 20
7.760273
 30
0.0
  0
LWPOLYLINE
  5
10d
100
AcDbEntity
  8
0
 62
1
100
AcDbPolyline
 90
40
 70
0
 10
41.375601
 20
7.760189
 30
0.0
 10
41.614200
 20
7.786153
 30
0.0
 10
41.838200
 20
7.829531
 30
0.0
 10
42.045001
 20
7.890406
 30
0.0
 10
42.230700
 20
7.969090
 30
0.0
 10
42.395199
 20
8.065525
 30
0.0
 10
42.538500
 20
8.180277
 30
0.0
 10
42.658800
 20
8.312639
 30
0.0
 10
42.756201
 20
8.462527
 30
0.0
 10
42.828399
 20
8.630506
 30
0.0
 10
42.871799
 20
8.815841
 30
0.0
 10
42.886193
 20
9.018505
 30
0.0
 10
42.874997
 20
9.187838
 30
0.0
 10
42.841299
 20
9.341169
 30
0.0
 10
42.785199
 20
9.478499
 30
0.0
 10
42.711500
 20
9.602281
 30
0.0
 10
42.623399
 20
9.714945
 30
0.0
 10
42.521200
 20
9.816516
 30
0.0
 10
42.407301
 20
9.908859
 30
0.0
 10
42.282999
 20
9.992510
 30
0.0
 10
42.148201
 20
10.067497
 30
0.0
 10
42.007900
 20
10.136218
 30
0.0
 10
41.865601
 20
10.200818
 30
0.0
 10
41.576800
 20
10.320198
 30
0.0
 10
41.293201
 20
10.433511
 30
0.0
 10
41.158899
 20
10.491507
 30
0.0
 10
41.034600
 20
10.553511
 30
0.0
 10
40.920202
 20
10.619495
 30
0.0
 10
40.818500
 20
10.690502
 30
0.0
 10
40.730500
 20
10.767521
 30
0.0
 10
40.656200
 20
10.850494
 30
0.0
 10
40.600701
 20
10.942696
 30
0.0
 10
40.567300
 20
11.046102
 30
0.0
 10
40.556208
 20
11.160515
 30
0.0
 10
40.583491
 20
11.342605
 30
0.0
 10
40.665101
 20
11.498307
 30
0.0
 10
40.801200
 20
11.627508
 30
0.0
 10
40.995800
 20
11.724197
 30
0.0
 10
41.251401
 20
11.782194
 30
0.0
 10
41.568201
 20
11.801385
 30
0.0
  0
LWPOLYLINE
  5
10e
100
AcDbEntity
  8
0
 62
1
100
AcDbPolyline
 90
14
 70
0
 10
41.568201
 20
11.801498
 30
0.0
 10
41.733399
 20
11.796983
 30
0.0
 10
41.902499
 20
11.783746
 30
0.0
 10
42.075199
 20
11.761423
 30
0.0
 10
42.250400
 20
11.731507
 30
0.0
 10
42.425400
 20
11.693520
 30
0.0
 10
42.600200
 20
11.647518
 30
0.0
 10
42.600200
 20
12.192517
 30
0.0
 10
42.523300
 20
12.210579
 30
0.0
 10
42.356199
 20
12.243515
 30
0.0
 10
42.179799
 20
12.273317
 30
0.0
 10
42.001200
 20
12.298153
 30
0.0
 10
41.825201
 20
12.315425
 30
0.0
 10
41.658599
 20
12.324541
 30
0.0
  0
LWPOLYLINE
  5
10f
100
AcDbEntity
  8
0
 62
1
100
AcDbPolyline
 90
2
 70
0
 10
41.658599
 20
12.324399
 30
0.0
 10
41.581200
 20
12.324399
 30
0.0
  0
LWPOLYLINE
  5
110
100
AcDbEntity
  8
0
 62
1
100
AcDbPolyline
 90
45
 70
0
 10
41.581200
 20
12.325500
 30
0.0
 10
41.304001
 20
12.313647
 30
0.0
 10
41.053701
 20
12.278397
 30
0.0
 10
40.830201
 20
12.219497
 30
0.0
 10
40.632899
 20
12.141999
 30
0.0
 10
40.460899
 20
12.049713
 30
0.0
 10
40.314200
 20
11.942496
 30
0.0
 10
40.192000
 20
11.822298
 30
0.0
 10
40.093299
 20
11.690895
 30
0.0
 10
40.018200
 20
11.548514
 30
0.0
 10
39.965500
 20
11.400404
 30
0.0
 10
39.933801
 20
11.250713
 30
0.0
 10
39.923189
 20
11.099499
 30
0.0
 10
39.934292
 20
10.932705
 30
0.0
 10
39.967702
 20
10.781716
 30
0.0
 10
40.023201
 20
10.646504
 30
0.0
 10
40.097400
 20
10.524697
 30
0.0
 10
40.185501
 20
10.414009
 30
0.0
 10
40.287200
 20
10.314497
 30
0.0
 10
40.401601
 20
10.224610
 30
0.0
 10
40.525900
 20
10.142906
 30
0.0
 10
40.660199
 20
10.069500
 30
0.0
 10
40.801101
 20
10.001795
 30
0.0
 10
40.943801
 20
9.937505
 30
0.0
 10
41.088200
 20
9.876517
 30
0.0
 10
41.515199
 20
9.704531
 30
0.0
 10
41.650000
 20
9.647183
 30
0.0
 10
41.774299
 20
9.585856
 30
0.0
 10
41.888201
 20
9.520522
 30
0.0
 10
41.990399
 20
9.450728
 30
0.0
 10
42.078399
 20
9.374726
 30
0.0
 10
42.152200
 20
9.292514
 30
0.0
 10
42.207801
 20
9.201413
 30
0.0
 10
42.241100
 20
9.098741
 30
0.0
 10
42.252192
 20
8.984525
 30
0.0
 10
42.245596
 20
8.877309
 30
0.0
 10
42.225589
 20
8.778305
 30
0.0
 10
42.192200
 20
8.687515
 30
0.0
 10
42.144899
 20
8.605727
 30
0.0
 10
42.081600
 20
8.532405
 30
0.0
 10
42.002199
 20
8.467522
 30
0.0
 10
41.906599
 20
8.412404
 30
0.0
 10
41.794199
 20
8.367079
 30
0.0
 10
41.665200
 20
8.331519
 30
0.0
 10
41.518199
 20
8.305837
 30
0.0
  0
LWPOLYLINE
  5
111
100
AcDbEntity
  8
0
 62
1
100
AcDbPolyline
 90
11
 70
0
 10
41.518199
 20
8.305950
 30
0.0
 10
41.351900
 20
8.290710
 30
0.0
 10
41.166201
 20
8.285545
 30
0.0
 10
40.905800
 20
8.291444
 30
0.0
 10
40.664401
 20
8.309563
 30
0.0
 10
40.442199
 20
8.339506
 30
0.0
 10
40.237100
 20
8.380739
 30
0.0
 10
40.045801
 20
8.431059
 30
0.0
 10
39.868201
 20
8.490523
 30
0.0
 10
39.868201
 20
7.904517
 30
0.0
 10
39.948601
 20
7.884197
 30
0.0
  0
LWPOLYLINE
  5
112
100
AcDbEntity
  8
0
 62
1
100
AcDbPolyline
 90
2
 70
0
 10
39.948601
 20
7.884310
 30
0.0
 10
40.034899
 20
7.864837
 30
0.0
  0
LWPOLYLINE
  5
113
100
AcDbEntity
  8
0
 62
1
100
AcDbPolyline
 90
4
 70
0
 10
40.034899
 20
7.864950
 30
0.0
 10
40.127199
 20
7.846605
 30
0.0
 10
40.224699
 20
7.829305
 30
0.0
 10
40.326299
 20
7.813472
 30
0.0
  0
LWPOLYLINE
  5
114
100
AcDbEntity
  8
0
 62
1
100
AcDbPolyline
 90
2
 70
0
 10
40.326299
 20
7.813613
 30
0.0
 10
40.541699
 20
7.786520
 30
0.0
  0
LWPOLYLINE
  5
115
100
AcDbEntity
  8
0
 62
1
100
AcDbPolyline
 90
3
 70
0
 10
40.541699
 20
7.786407
 30
0.0
 10
40.654001
 20
7.775118
 30
0.0
 10
40.886199
 20
7.757592
 30
0.0
  0
LWPOLYLINE
  5
116
100
AcDbEntity
  8
0
 62
1
100
AcDbPolyline
 90
2
 70
0
 10
40.886199
 20
7.757733
 30
0.0
 10
41.003900
 20
7.753218
 30
0.0
  0
LWPOLYLINE
  5
117
100
AcDbEntity
  8
0
 62
1
100
AcDbPolyline
 90
2
 70
0
 10
41.003900
 20
7.753077
 30
0.0
 10
41.122199
 20
7.750255
 30
0.0
  0
LWPOLYLINE
  5
118
100
AcDbEntity
  8
0
 62
1
100
AcDbPolyline
 90
2
 70
0
 10
41.122199
 20
7.751525
 30
0.0
 10
41.375601
 20
7.760273
 30
0.0
  0
LWPOLYLINE
  5
119
100
AcDbEntity
  8
0
 62
5
100
AcDbPolyline
 90
9
 70
0
 10
4.224000
 20
11.746521
 30
0.0
 10
5.543000
 20
11.746521
 30
0.0
 10
5.543000
 20
12.264512
 30
0.0
 10
2.293000
 20
12.264512
 30
0.0
 10
2.293000
 20
11.746521
 30
0.0
 10
3.610990
 20
11.746521
 30
0.0
 10
3.610990
 20
7.812513
 30
0.0
 10
4.224000
 20
7.812513
 30
0.0
 10
4.224000
 20
11.746521
 30
0.0
  0
LWPOLYLINE
  5
11a
100
AcDbEntity
  8
0
 62
5
100
AcDbPolyline
 90
13
 70
0
 10
8.961110
 20
8.330532
 30
0.0
 10
7.036100
 20
8.330532
 30
0.0
 10
7.036100
 20
9.863506
 30
0.0
 10
8.886110
 20
9.863506
 30
0.0
 10
8.886110
 20
10.374498
 30
0.0
 10
7.036100
 20
10.374498
 30
0.0
 10
7.036100
 20
11.753520
 30
0.0
 10
8.961110
 20
11.753520
 30
0.0
 10
8.961110
 20
12.264512
 30
0.0
 10
6.430110
 20
12.264512
 30
0.0
 10
6.430110
 20
7.812513
 30
0.0
 10
8.961110
 20
7.812513
 30
0.0
 10
8.961110
 20
8.330532
 30
0.0
  0
LWPOLYLINE
  5
11b
100
AcDbEntity
  8
0
 62
5
100
AcDbPolyline
 90
9
 70
0
 10
15.459400
 20
11.746521
 30
0.0
 10
16.778400
 20
11.746521
 30
0.0
 10
16.778400
 20
12.264512
 30
0.0
 10
13.528400
 20
12.264512
 30
0.0
 10
13.528400
 20
11.746521
 30
0.0
 10
14.846300
 20
11.746521
 30
0.0
 10
14.846300
 20
7.812513
 30
0.0
 10
15.459400
 20
7.812513
 30
0.0
 10
15.459400
 20
11.746521
 30
0.0
  0
LWPOLYLINE
  5
11c
100
AcDbEntity
  8
0
 62
1
100
AcDbPolyline
 90
9
 70
0
 10
34.224000
 20
11.746521
 30
0.0
 10
35.542999
 20
11.746521
 30
0.0
 10
35.542999
 20
12.264512
 30
0.0
 10
32.293001
 20
12.264512
 30
0.0
 10
32.293001
 20
11.746521
 30
0.0
 10
33.610999
 20
11.746521
 30
0.0
 10
33.610999
 20
7.812513
 30
0.0
 10
34.224000
 20
7.812513
 30
0.0
 10
34.224000
 20
11.746521
 30
0.0
  0
LWPOLYLINE
  5
11d
100
AcDbEntity
  8
0
 62
1
100
AcDbPolyline
 90
13
 70
0
 10
38.961100
 20
8.330532
 30
0.0
 10
37.036101
 20
8.330532
 30
0.0
 10
37.036101
 20
9.863506
 30
0.0
 10
38.886099
 20
9.863506
 30
0.0
 10
38.886099
 20
10.374498
 30
0.0
 10
37.036101
 20
10.374498
 30
0.0
 10
37.036101
 20
11.753520
 30
0.0
 10
38.961100
 20
11.753520
 30
0.0
 10
38.961100
 20
12.264512
 30
0.0
 10
36.430100
 20
12.264512
 30
0.0
 10
36.430100
 20
7.812513
 30
0.0
 10
38.961100
 20
7.812513
 30
0.0
 10
38.961100
 20
8.330532
 30
0.0
  0
LWPOLYLINE
  5
11e
100
AcDbEntity
  8
0
 62
1
100
AcDbPolyline
 90
9
 70
0
 10
45.459399
 20
11.746521
 30
0.0
 10
46.778401
 20
11.746521
 30
0.0
 10
46.778401
 20
12.264512
 30
0.0
 10
43.528401
 20
12.264512
 30
0.0
 10
43.528401
 20
11.746521
 30
0.0
 10
44.846299
 20
11.746521
 30
0.0
 10
44.846299
 20
7.812513
 30
0.0
 10
45.459399
 20
7.812513
 30
0.0
 10
45.459399
 20
11.746521
 30
0.0
  0
ENDSEC
  0
SECTION
  2
OBJECTS
  0
DICTIONARY
  5
C
330
0
100
AcDbDictionary
  3
ACAD_GROUP
350
D
  3
ACAD_MLINESTYLE
350
17
  0
DICTIONARY
  5
D
330
C
100
AcDbDictionary
  0
DICTIONARY
  5
1A
330
C
100
AcDbDictionary
  0
DICTIONARY
  5
17
330
C
100
AcDbDictionary
  3
STANDARD
350
18
  0
DICTIONARY
  5
19
330
C
100
AcDbDictionary
  0
ENDSEC
  0
EOF
