  0
SECTION
  2
HEADER
  9
$ACADVER
  1
AC1014
  9
$HANDSEED
  5
FFFF
  9
$MEASUREMENT
 70
     1
  0
ENDSEC
  0
SECTION
  2
TABLES
  0
TABLE
  2
VPORT
  5
8
330
0
100
AcDbSymbolTable
 70
     4
  0
VPORT
  5
2E
330
8
100
AcDbSymbolTableRecord
100
AcDbViewportTableRecord
  2
*ACTIVE
 70
     0
 10
0.0
 20
0.0
 11
1.0
 21
1.0
 12
210.0
 22
148.5
 13
0.0
 23
0.0
 14
10.0
 24
10.0
 15
10.0
 25
10.0
 16
0.0
 26
0.0
 36
1.0
 17
0.0
 27
0.0
 37
0.0
 40
341.0
 41
1.24
 42
50.0
 43
0.0
 44
0.0
 50
0.0
 51
0.0
 71
     0
 72
   100
 73
     1
 74
     3
 75
     0
 76
     0
 77
     0
 78
     0
  0
ENDTAB
  0
TABLE
  2
LTYPE
  5
5
330
0
100
AcDbSymbolTable
 70
     1
  0
LTYPE
  5
14
330
5
100
AcDbSymbolTableRecord
100
AcDbLinetypeTableRecord
  2
BYBLOCK
 70
     0
  3

 72
    65
 73
     0
 40
0.0
  0
LTYPE
  5
15
330
5
100
AcDbSymbolTableRecord
100
AcDbLinetypeTableRecord
  2
BYLAYER
 70
     0
  3

 72
    65
 73
     0
 40
0.0
  0
LTYPE
  5
16
330
5
100
AcDbSymbolTableRecord
100
AcDbLinetypeTableRecord
  2
CONTINUOUS
 70
     0
  3
Solid line
 72
    65
 73
     0
 40
0.0
  0
ENDTAB
  0
TABLE
  2
LAYER
  5
2
100
AcDbSymbolTable
 70
1
  0
LAYER
  5
50
100
AcDbSymbolTableRecord
100
AcDbLayerTableRecord
  2
0
 70
0
  6
CONTINUOUS
  0
ENDTAB
  0
TABLE
  2
STYLE
  5
3
330
0
100
AcDbSymbolTable
 70
     1
  0
STYLE
  5
11
330
3
100
AcDbSymbolTableRecord
100
AcDbTextStyleTableRecord
  2
STANDARD
 70
     0
 40
0.0
 41
1.0
 50
0.0
 71
     0
 42
2.5
  3
txt
  4

  0
ENDTAB
  0
TABLE
  2
VIEW
  5
6
330
0
100
AcDbSymbolTable
 70
     0
  0
ENDTAB
  0
TABLE
  2
UCS
  5
7
330
0
100
AcDbSymbolTable
 70
     0
  0
ENDTAB
  0
TABLE
  2
APPID
  5
9
330
0
100
AcDbSymbolTable
 70
     2
  0
APPID
  5
12
330
9
100
AcDbSymbolTableRecord
100
AcDbRegAppTableRecord
  2
ACAD
 70
     0
  0
ENDTAB
  0
TABLE
  2
DIMSTYLE
  5
A
330
0
100
AcDbSymbolTable
 70
     1
  0
DIMSTYLE
105
27
330
A
100
AcDbSymbolTableRecord
100
AcDbDimStyleTableRecord
  2
ISO-25
 70
     0
  3

  4

  5

  6

  7

 40
1.0
 41
2.5
 42
0.625
 43
3.75
 44
1.25
 45
0.0
 46
0.0
 47
0.0
 48
0.0
140
2.5
141
2.5
142
0.0
143
0.03937007874016
144
1.0
145
0.0
146
1.0
147
0.625
 71
     0
 72
     0
 73
     0
 74
     0
 75
     0
 76
     0
 77
     1
 78
     8
170
     0
171
     3
172
     1
173
     0
174
     0
175
     0
176
     0
177
     0
178
     0
270
     2
271
     2
272
     2
273
     2
274
     3
340
11
275
     0
280
     0
281
     0
282
     0
283
     0
284
     8
285
     0
286
     0
287
     3
288
     0
  0
ENDTAB
  0
TABLE
  2
BLOCK_RECORD
  5
1
330
0
100
AcDbSymbolTable
 70
     1
  0
BLOCK_RECORD
  5
1F
330
1
100
AcDbSymbolTableRecord
100
AcDbBlockTableRecord
  2
*MODEL_SPACE
  0
BLOCK_RECORD
  5
1B
330
1
100
AcDbSymbolTableRecord
100
AcDbBlockTableRecord
  2
*PAPER_SPACE
  0
ENDTAB
  0
ENDSEC
  0
SECTION
  2
BLOCKS
  0
BLOCK
  5
20
330
1F
100
AcDbEntity
  8
0
100
AcDbBlockBegin
  2
*MODEL_SPACE
 70
     0
 10
0.0
 20
0.0
 30
0.0
  3
*MODEL_SPACE
  1

  0
ENDBLK
  5
21
330
1F
100
AcDbEntity
  8
0
100
AcDbBlockEnd
  0
BLOCK
  5
1C
330
1B
100
AcDbEntity
 67
     1
  8
0
100
AcDbBlockBegin
  2
*PAPER_SPACE
  1

  0
ENDBLK
  5
1D
330
1B
100
AcDbEntity
 67
     1
  8
0
100
AcDbBlockEnd
  0
ENDSEC
  0
SECTION
  2
ENTITIES
  0
LWPOLYLINE
  5
100
100
AcDbEntity
  8
0
 62
7
100
AcDbPolyline
 90
5
 70
0
 10
167.500001
 20
597.000006
 30
0.0
 10
77.500000
 20
597.000006
 30
0.0
 10
77.500000
 20
511.500013
 30
0.0
 10
167.500001
 20
511.500013
 30
0.0
 10
167.500001
 20
597.000006
 30
0.0
  0
LWPOLYLINE
  5
101
100
AcDbEntity
  8
0
 62
7
100
AcDbPolyline
 90
5
 70
0
 10
106.015000
 20
537.765013
 30
0.0
 10
106.015000
 20
570.735012
 30
0.0
 10
119.985000
 20
570.735012
 30
0.0
 10
119.985000
 20
537.765013
 30
0.0
 10
106.015000
 20
537.765013
 30
0.0
  0
LWPOLYLINE
  5
102
100
AcDbEntity
  8
0
 62
7
100
AcDbPolyline
 90
5
 70
0
 10
87.015001
 20
537.765013
 30
0.0
 10
87.015001
 20
570.735012
 30
0.0
 10
100.985001
 20
570.735012
 30
0.0
 10
100.985001
 20
537.765013
 30
0.0
 10
87.015001
 20
537.765013
 30
0.0
  0
LWPOLYLINE
  5
103
100
AcDbEntity
  8
0
 62
7
100
AcDbPolyline
 90
5
 70
0
 10
125.015001
 20
537.765013
 30
0.0
 10
125.015001
 20
570.735012
 30
0.0
 10
138.985001
 20
570.735012
 30
0.0
 10
138.985001
 20
537.765013
 30
0.0
 10
125.015001
 20
537.765013
 30
0.0
  0
LWPOLYLINE
  5
104
100
AcDbEntity
  8
0
 62
7
100
AcDbPolyline
 90
5
 70
0
 10
144.015000
 20
552.015014
 30
0.0
 10
144.015000
 20
565.985014
 30
0.0
 10
157.985000
 20
565.985014
 30
0.0
 10
157.985000
 20
552.015014
 30
0.0
 10
144.015000
 20
552.015014
 30
0.0
  0
LWPOLYLINE
  5
105
100
AcDbEntity
  8
0
 62
7
100
AcDbPolyline
 90
5
 70
0
 10
144.015000
 20
533.015013
 30
0.0
 10
144.015000
 20
546.985013
 30
0.0
 10
157.985000
 20
546.985013
 30
0.0
 10
157.985000
 20
533.015013
 30
0.0
 10
144.015000
 20
533.015013
 30
0.0
  0
LWPOLYLINE
  5
106
100
AcDbEntity
  8
0
 62
7
100
AcDbPolyline
 90
5
 70
0
 10
76.499999
 20
597.000006
 30
0.0
 10
5.000000
 20
597.000006
 30
0.0
 10
5.000000
 20
511.500013
 30
0.0
 10
76.499999
 20
511.500013
 30
0.0
 10
76.499999
 20
597.000006
 30
0.0
  0
LWPOLYLINE
  5
107
100
AcDbEntity
  8
0
 62
7
100
AcDbPolyline
 90
5
 70
0
 10
26.515000
 20
533.015013
 30
0.0
 10
26.515000
 20
565.985014
 30
0.0
 10
40.485001
 20
565.985014
 30
0.0
 10
40.485001
 20
533.015013
 30
0.0
 10
26.515000
 20
533.015013
 30
0.0
  0
LWPOLYLINE
  5
108
100
AcDbEntity
  8
0
 62
7
100
AcDbPolyline
 90
5
 70
0
 10
50.265000
 20
552.015014
 30
0.0
 10
50.265000
 20
565.985014
 30
0.0
 10
64.235000
 20
565.985014
 30
0.0
 10
64.235000
 20
552.015014
 30
0.0
 10
50.265000
 20
552.015014
 30
0.0
  0
LWPOLYLINE
  5
109
100
AcDbEntity
  8
0
 62
7
100
AcDbPolyline
 90
5
 70
0
 10
50.265000
 20
533.015013
 30
0.0
 10
50.265000
 20
546.985013
 30
0.0
 10
64.235000
 20
546.985013
 30
0.0
 10
64.235000
 20
533.015013
 30
0.0
 10
50.265000
 20
533.015013
 30
0.0
  0
LWPOLYLINE
  5
10a
100
AcDbEntity
  8
0
 62
7
100
AcDbPolyline
 90
5
 70
0
 10
167.500001
 20
510.500012
 30
0.0
 10
77.500000
 20
510.500012
 30
0.0
 10
77.500000
 20
425.000014
 30
0.0
 10
167.500001
 20
425.000014
 30
0.0
 10
167.500001
 20
510.500012
 30
0.0
  0
LWPOLYLINE
  5
10b
100
AcDbEntity
  8
0
 62
7
100
AcDbPolyline
 90
5
 70
0
 10
87.015001
 20
451.265014
 30
0.0
 10
87.015001
 20
484.235013
 30
0.0
 10
100.985001
 20
484.235013
 30
0.0
 10
100.985001
 20
451.265014
 30
0.0
 10
87.015001
 20
451.265014
 30
0.0
  0
LWPOLYLINE
  5
10c
100
AcDbEntity
  8
0
 62
7
100
AcDbPolyline
 90
5
 70
0
 10
106.015000
 20
451.265014
 30
0.0
 10
106.015000
 20
484.235013
 30
0.0
 10
119.985000
 20
484.235013
 30
0.0
 10
119.985000
 20
451.265014
 30
0.0
 10
106.015000
 20
451.265014
 30
0.0
  0
LWPOLYLINE
  5
10d
100
AcDbEntity
  8
0
 62
7
100
AcDbPolyline
 90
5
 70
0
 10
125.015001
 20
451.265014
 30
0.0
 10
125.015001
 20
484.235013
 30
0.0
 10
138.985001
 20
484.235013
 30
0.0
 10
138.985001
 20
451.265014
 30
0.0
 10
125.015001
 20
451.265014
 30
0.0
  0
LWPOLYLINE
  5
10e
100
AcDbEntity
  8
0
 62
7
100
AcDbPolyline
 90
5
 70
0
 10
144.015000
 20
465.515012
 30
0.0
 10
144.015000
 20
479.485012
 30
0.0
 10
157.985000
 20
479.485012
 30
0.0
 10
157.985000
 20
465.515012
 30
0.0
 10
144.015000
 20
465.515012
 30
0.0
  0
LWPOLYLINE
  5
10f
100
AcDbEntity
  8
0
 62
7
100
AcDbPolyline
 90
5
 70
0
 10
144.015000
 20
446.515014
 30
0.0
 10
144.015000
 20
460.485014
 30
0.0
 10
157.985000
 20
460.485014
 30
0.0
 10
157.985000
 20
446.515014
 30
0.0
 10
144.015000
 20
446.515014
 30
0.0
  0
LWPOLYLINE
  5
110
100
AcDbEntity
  8
0
 62
7
100
AcDbPolyline
 90
5
 70
0
 10
76.499999
 20
510.500012
 30
0.0
 10
5.000000
 20
510.500012
 30
0.0
 10
5.000000
 20
425.000014
 30
0.0
 10
76.499999
 20
425.000014
 30
0.0
 10
76.499999
 20
510.500012
 30
0.0
  0
LWPOLYLINE
  5
111
100
AcDbEntity
  8
0
 62
7
100
AcDbPolyline
 90
5
 70
0
 10
50.265000
 20
465.515012
 30
0.0
 10
50.265000
 20
479.485012
 30
0.0
 10
64.235000
 20
479.485012
 30
0.0
 10
64.235000
 20
465.515012
 30
0.0
 10
50.265000
 20
465.515012
 30
0.0
  0
LWPOLYLINE
  5
112
100
AcDbEntity
  8
0
 62
7
100
AcDbPolyline
 90
5
 70
0
 10
26.515000
 20
446.515014
 30
0.0
 10
26.515000
 20
479.485012
 30
0.0
 10
40.485001
 20
479.485012
 30
0.0
 10
40.485001
 20
446.515014
 30
0.0
 10
26.515000
 20
446.515014
 30
0.0
  0
LWPOLYLINE
  5
113
100
AcDbEntity
  8
0
 62
7
100
AcDbPolyline
 90
5
 70
0
 10
50.265000
 20
446.515014
 30
0.0
 10
50.265000
 20
460.485014
 30
0.0
 10
64.235000
 20
460.485014
 30
0.0
 10
64.235000
 20
446.515014
 30
0.0
 10
50.265000
 20
446.515014
 30
0.0
  0
LWPOLYLINE
  5
114
100
AcDbEntity
  8
0
 62
7
100
AcDbPolyline
 90
5
 70
0
 10
167.500001
 20
424.000013
 30
0.0
 10
5.000000
 20
424.000013
 30
0.0
 10
5.000000
 20
215.000014
 30
0.0
 10
167.500001
 20
215.000014
 30
0.0
 10
167.500001
 20
424.000013
 30
0.0
  0
LWPOLYLINE
  5
115
100
AcDbEntity
  8
0
 62
7
100
AcDbPolyline
 90
5
 70
0
 10
74.515001
 20
397.515013
 30
0.0
 10
74.515001
 20
411.485013
 30
0.0
 10
88.485001
 20
411.485013
 30
0.0
 10
88.485001
 20
397.515013
 30
0.0
 10
74.515001
 20
397.515013
 30
0.0
  0
LWPOLYLINE
  5
116
100
AcDbEntity
  8
0
 62
7
100
AcDbPolyline
 90
5
 70
0
 10
36.515000
 20
394.515013
 30
0.0
 10
36.515000
 20
408.485013
 30
0.0
 10
50.485000
 20
408.485013
 30
0.0
 10
50.485000
 20
394.515013
 30
0.0
 10
36.515000
 20
394.515013
 30
0.0
  0
LWPOLYLINE
  5
117
100
AcDbEntity
  8
0
 62
7
100
AcDbPolyline
 90
5
 70
0
 10
55.514999
 20
394.515013
 30
0.0
 10
55.514999
 20
408.485013
 30
0.0
 10
69.484999
 20
408.485013
 30
0.0
 10
69.484999
 20
394.515013
 30
0.0
 10
55.514999
 20
394.515013
 30
0.0
  0
LWPOLYLINE
  5
118
100
AcDbEntity
  8
0
 62
7
100
AcDbPolyline
 90
5
 70
0
 10
93.514999
 20
391.515014
 30
0.0
 10
93.514999
 20
405.485014
 30
0.0
 10
107.484999
 20
405.485014
 30
0.0
 10
107.484999
 20
391.515014
 30
0.0
 10
93.514999
 20
391.515014
 30
0.0
  0
LWPOLYLINE
  5
119
100
AcDbEntity
  8
0
 62
7
100
AcDbPolyline
 90
5
 70
0
 10
17.515000
 20
385.015012
 30
0.0
 10
17.515000
 20
398.985012
 30
0.0
 10
31.484999
 20
398.985012
 30
0.0
 10
31.484999
 20
385.015012
 30
0.0
 10
17.515000
 20
385.015012
 30
0.0
  0
LWPOLYLINE
  5
11a
100
AcDbEntity
  8
0
 62
7
100
AcDbPolyline
 90
5
 70
0
 10
136.265000
 20
384.515013
 30
0.0
 10
136.265000
 20
398.485013
 30
0.0
 10
150.235000
 20
398.485013
 30
0.0
 10
150.235000
 20
384.515013
 30
0.0
 10
136.265000
 20
384.515013
 30
0.0
  0
LWPOLYLINE
  5
11b
100
AcDbEntity
  8
0
 62
7
100
AcDbPolyline
 90
5
 70
0
 10
112.515001
 20
384.515013
 30
0.0
 10
112.515001
 20
398.485013
 30
0.0
 10
126.485001
 20
398.485013
 30
0.0
 10
126.485001
 20
384.515013
 30
0.0
 10
112.515001
 20
384.515013
 30
0.0
  0
LWPOLYLINE
  5
11c
100
AcDbEntity
  8
0
 62
7
100
AcDbPolyline
 90
5
 70
0
 10
74.515001
 20
378.515014
 30
0.0
 10
74.515001
 20
392.485014
 30
0.0
 10
88.485001
 20
392.485014
 30
0.0
 10
88.485001
 20
378.515014
 30
0.0
 10
74.515001
 20
378.515014
 30
0.0
  0
LWPOLYLINE
  5
11d
100
AcDbEntity
  8
0
 62
7
100
AcDbPolyline
 90
5
 70
0
 10
36.515000
 20
375.515014
 30
0.0
 10
36.515000
 20
389.485014
 30
0.0
 10
50.485000
 20
389.485014
 30
0.0
 10
50.485000
 20
375.515014
 30
0.0
 10
36.515000
 20
375.515014
 30
0.0
  0
LWPOLYLINE
  5
11e
100
AcDbEntity
  8
0
 62
7
100
AcDbPolyline
 90
5
 70
0
 10
55.514999
 20
375.515014
 30
0.0
 10
55.514999
 20
389.485014
 30
0.0
 10
69.484999
 20
389.485014
 30
0.0
 10
69.484999
 20
375.515014
 30
0.0
 10
55.514999
 20
375.515014
 30
0.0
  0
LWPOLYLINE
  5
11f
100
AcDbEntity
  8
0
 62
7
100
AcDbPolyline
 90
5
 70
0
 10
93.514999
 20
372.515012
 30
0.0
 10
93.514999
 20
386.485012
 30
0.0
 10
107.484999
 20
386.485012
 30
0.0
 10
107.484999
 20
372.515012
 30
0.0
 10
93.514999
 20
372.515012
 30
0.0
  0
LWPOLYLINE
  5
120
100
AcDbEntity
  8
0
 62
7
100
AcDbPolyline
 90
5
 70
0
 10
112.515001
 20
365.515012
 30
0.0
 10
112.515001
 20
379.485012
 30
0.0
 10
126.485001
 20
379.485012
 30
0.0
 10
126.485001
 20
365.515012
 30
0.0
 10
112.515001
 20
365.515012
 30
0.0
  0
LWPOLYLINE
  5
121
100
AcDbEntity
  8
0
 62
7
100
AcDbPolyline
 90
5
 70
0
 10
136.265000
 20
365.515012
 30
0.0
 10
136.265000
 20
379.485012
 30
0.0
 10
150.235000
 20
379.485012
 30
0.0
 10
150.235000
 20
365.515012
 30
0.0
 10
136.265000
 20
365.515012
 30
0.0
  0
LWPOLYLINE
  5
122
100
AcDbEntity
  8
0
 62
7
100
AcDbPolyline
 90
5
 70
0
 10
74.515001
 20
359.515013
 30
0.0
 10
74.515001
 20
373.485013
 30
0.0
 10
88.485001
 20
373.485013
 30
0.0
 10
88.485001
 20
359.515013
 30
0.0
 10
74.515001
 20
359.515013
 30
0.0
  0
LWPOLYLINE
  5
123
100
AcDbEntity
  8
0
 62
7
100
AcDbPolyline
 90
5
 70
0
 10
55.514999
 20
356.515013
 30
0.0
 10
55.514999
 20
370.485013
 30
0.0
 10
69.484999
 20
370.485013
 30
0.0
 10
69.484999
 20
356.515013
 30
0.0
 10
55.514999
 20
356.515013
 30
0.0
  0
LWPOLYLINE
  5
124
100
AcDbEntity
  8
0
 62
7
100
AcDbPolyline
 90
5
 70
0
 10
36.515000
 20
356.515013
 30
0.0
 10
36.515000
 20
370.485013
 30
0.0
 10
50.485000
 20
370.485013
 30
0.0
 10
50.485000
 20
356.515013
 30
0.0
 10
36.515000
 20
356.515013
 30
0.0
  0
LWPOLYLINE
  5
125
100
AcDbEntity
  8
0
 62
7
100
AcDbPolyline
 90
5
 70
0
 10
93.514999
 20
353.515013
 30
0.0
 10
93.514999
 20
367.485013
 30
0.0
 10
107.484999
 20
367.485013
 30
0.0
 10
107.484999
 20
353.515013
 30
0.0
 10
93.514999
 20
353.515013
 30
0.0
  0
LWPOLYLINE
  5
126
100
AcDbEntity
  8
0
 62
7
100
AcDbPolyline
 90
5
 70
0
 10
17.515000
 20
347.015012
 30
0.0
 10
17.515000
 20
360.985012
 30
0.0
 10
31.484999
 20
360.985012
 30
0.0
 10
31.484999
 20
347.015012
 30
0.0
 10
17.515000
 20
347.015012
 30
0.0
  0
LWPOLYLINE
  5
127
100
AcDbEntity
  8
0
 62
7
100
AcDbPolyline
 90
5
 70
0
 10
112.515001
 20
346.515013
 30
0.0
 10
112.515001
 20
360.485013
 30
0.0
 10
126.485001
 20
360.485013
 30
0.0
 10
126.485001
 20
346.515013
 30
0.0
 10
112.515001
 20
346.515013
 30
0.0
  0
LWPOLYLINE
  5
128
100
AcDbEntity
  8
0
 62
7
100
AcDbPolyline
 90
5
 70
0
 10
131.515000
 20
341.765013
 30
0.0
 10
131.515000
 20
355.735013
 30
0.0
 10
145.485000
 20
355.735013
 30
0.0
 10
145.485000
 20
341.765013
 30
0.0
 10
131.515000
 20
341.765013
 30
0.0
  0
LWPOLYLINE
  5
129
100
AcDbEntity
  8
0
 62
7
100
AcDbPolyline
 90
5
 70
0
 10
74.515001
 20
340.515014
 30
0.0
 10
74.515001
 20
354.485014
 30
0.0
 10
88.485001
 20
354.485014
 30
0.0
 10
88.485001
 20
340.515014
 30
0.0
 10
74.515001
 20
340.515014
 30
0.0
  0
LWPOLYLINE
  5
12a
100
AcDbEntity
  8
0
 62
7
100
AcDbPolyline
 90
5
 70
0
 10
36.515000
 20
337.515014
 30
0.0
 10
36.515000
 20
351.485014
 30
0.0
 10
50.485000
 20
351.485014
 30
0.0
 10
50.485000
 20
337.515014
 30
0.0
 10
36.515000
 20
337.515014
 30
0.0
  0
LWPOLYLINE
  5
12b
100
AcDbEntity
  8
0
 62
7
100
AcDbPolyline
 90
5
 70
0
 10
55.514999
 20
337.515014
 30
0.0
 10
55.514999
 20
351.485014
 30
0.0
 10
69.484999
 20
351.485014
 30
0.0
 10
69.484999
 20
337.515014
 30
0.0
 10
55.514999
 20
337.515014
 30
0.0
  0
LWPOLYLINE
  5
12c
100
AcDbEntity
  8
0
 62
7
100
AcDbPolyline
 90
5
 70
0
 10
93.514999
 20
334.515012
 30
0.0
 10
93.514999
 20
348.485012
 30
0.0
 10
107.484999
 20
348.485012
 30
0.0
 10
107.484999
 20
334.515012
 30
0.0
 10
93.514999
 20
334.515012
 30
0.0
  0
LWPOLYLINE
  5
12d
100
AcDbEntity
  8
0
 62
7
100
AcDbPolyline
 90
5
 70
0
 10
112.515001
 20
327.515015
 30
0.0
 10
112.515001
 20
341.485015
 30
0.0
 10
126.485001
 20
341.485015
 30
0.0
 10
126.485001
 20
327.515015
 30
0.0
 10
112.515001
 20
327.515015
 30
0.0
  0
LWPOLYLINE
  5
12e
100
AcDbEntity
  8
0
 62
7
100
AcDbPolyline
 90
5
 70
0
 10
167.500001
 20
214.000013
 30
0.0
 10
5.000000
 20
214.000013
 30
0.0
 10
5.000000
 20
5.000005
 30
0.0
 10
167.500001
 20
5.000005
 30
0.0
 10
167.500001
 20
214.000013
 30
0.0
  0
LWPOLYLINE
  5
12f
100
AcDbEntity
  8
0
 62
7
100
AcDbPolyline
 90
5
 70
0
 10
84.014999
 20
187.515012
 30
0.0
 10
84.014999
 20
201.485012
 30
0.0
 10
97.984999
 20
201.485012
 30
0.0
 10
97.984999
 20
187.515012
 30
0.0
 10
84.014999
 20
187.515012
 30
0.0
  0
LWPOLYLINE
  5
130
100
AcDbEntity
  8
0
 62
7
100
AcDbPolyline
 90
5
 70
0
 10
122.014999
 20
184.515013
 30
0.0
 10
122.014999
 20
198.485013
 30
0.0
 10
135.984999
 20
198.485013
 30
0.0
 10
135.984999
 20
184.515013
 30
0.0
 10
122.014999
 20
184.515013
 30
0.0
  0
LWPOLYLINE
  5
131
100
AcDbEntity
  8
0
 62
7
100
AcDbPolyline
 90
5
 70
0
 10
103.015000
 20
184.515013
 30
0.0
 10
103.015000
 20
198.485013
 30
0.0
 10
116.985000
 20
198.485013
 30
0.0
 10
116.985000
 20
184.515013
 30
0.0
 10
103.015000
 20
184.515013
 30
0.0
  0
LWPOLYLINE
  5
132
100
AcDbEntity
  8
0
 62
7
100
AcDbPolyline
 90
5
 70
0
 10
65.015000
 20
181.515013
 30
0.0
 10
65.015000
 20
195.485013
 30
0.0
 10
78.985000
 20
195.485013
 30
0.0
 10
78.985000
 20
181.515013
 30
0.0
 10
65.015000
 20
181.515013
 30
0.0
  0
LWPOLYLINE
  5
133
100
AcDbEntity
  8
0
 62
7
100
AcDbPolyline
 90
5
 70
0
 10
141.015000
 20
175.015012
 30
0.0
 10
141.015000
 20
188.985012
 30
0.0
 10
154.985000
 20
188.985012
 30
0.0
 10
154.985000
 20
175.015012
 30
0.0
 10
141.015000
 20
175.015012
 30
0.0
  0
LWPOLYLINE
  5
134
100
AcDbEntity
  8
0
 62
7
100
AcDbPolyline
 90
5
 70
0
 10
22.265000
 20
174.515013
 30
0.0
 10
22.265000
 20
188.485013
 30
0.0
 10
36.234999
 20
188.485013
 30
0.0
 10
36.234999
 20
174.515013
 30
0.0
 10
22.265000
 20
174.515013
 30
0.0
  0
LWPOLYLINE
  5
135
100
AcDbEntity
  8
0
 62
7
100
AcDbPolyline
 90
5
 70
0
 10
46.015001
 20
174.515013
 30
0.0
 10
46.015001
 20
188.485013
 30
0.0
 10
59.985001
 20
188.485013
 30
0.0
 10
59.985001
 20
174.515013
 30
0.0
 10
46.015001
 20
174.515013
 30
0.0
  0
LWPOLYLINE
  5
136
100
AcDbEntity
  8
0
 62
7
100
AcDbPolyline
 90
5
 70
0
 10
84.014999
 20
168.515014
 30
0.0
 10
84.014999
 20
182.485014
 30
0.0
 10
97.984999
 20
182.485014
 30
0.0
 10
97.984999
 20
168.515014
 30
0.0
 10
84.014999
 20
168.515014
 30
0.0
  0
LWPOLYLINE
  5
137
100
AcDbEntity
  8
0
 62
7
100
AcDbPolyline
 90
5
 70
0
 10
122.014999
 20
165.515014
 30
0.0
 10
122.014999
 20
179.485014
 30
0.0
 10
135.984999
 20
179.485014
 30
0.0
 10
135.984999
 20
165.515014
 30
0.0
 10
122.014999
 20
165.515014
 30
0.0
  0
LWPOLYLINE
  5
138
100
AcDbEntity
  8
0
 62
7
100
AcDbPolyline
 90
5
 70
0
 10
103.015000
 20
165.515014
 30
0.0
 10
103.015000
 20
179.485014
 30
0.0
 10
116.985000
 20
179.485014
 30
0.0
 10
116.985000
 20
165.515014
 30
0.0
 10
103.015000
 20
165.515014
 30
0.0
  0
LWPOLYLINE
  5
139
100
AcDbEntity
  8
0
 62
7
100
AcDbPolyline
 90
5
 70
0
 10
65.015000
 20
162.515014
 30
0.0
 10
65.015000
 20
176.485014
 30
0.0
 10
78.985000
 20
176.485014
 30
0.0
 10
78.985000
 20
162.515014
 30
0.0
 10
65.015000
 20
162.515014
 30
0.0
  0
LWPOLYLINE
  5
13a
100
AcDbEntity
  8
0
 62
7
100
AcDbPolyline
 90
5
 70
0
 10
22.265000
 20
155.515014
 30
0.0
 10
22.265000
 20
169.485014
 30
0.0
 10
36.234999
 20
169.485014
 30
0.0
 10
36.234999
 20
155.515014
 30
0.0
 10
22.265000
 20
155.515014
 30
0.0
  0
LWPOLYLINE
  5
13b
100
AcDbEntity
  8
0
 62
7
100
AcDbPolyline
 90
5
 70
0
 10
46.015001
 20
155.515014
 30
0.0
 10
46.015001
 20
169.485014
 30
0.0
 10
59.985001
 20
169.485014
 30
0.0
 10
59.985001
 20
155.515014
 30
0.0
 10
46.015001
 20
155.515014
 30
0.0
  0
LWPOLYLINE
  5
13c
100
AcDbEntity
  8
0
 62
7
100
AcDbPolyline
 90
5
 70
0
 10
84.014999
 20
149.515012
 30
0.0
 10
84.014999
 20
163.485012
 30
0.0
 10
97.984999
 20
163.485012
 30
0.0
 10
97.984999
 20
149.515012
 30
0.0
 10
84.014999
 20
149.515012
 30
0.0
  0
LWPOLYLINE
  5
13d
100
AcDbEntity
  8
0
 62
7
100
AcDbPolyline
 90
5
 70
0
 10
103.015000
 20
146.515012
 30
0.0
 10
103.015000
 20
160.485012
 30
0.0
 10
116.985000
 20
160.485012
 30
0.0
 10
116.985000
 20
146.515012
 30
0.0
 10
103.015000
 20
146.515012
 30
0.0
  0
LWPOLYLINE
  5
13e
100
AcDbEntity
  8
0
 62
7
100
AcDbPolyline
 90
5
 70
0
 10
122.014999
 20
146.515012
 30
0.0
 10
122.014999
 20
160.485012
 30
0.0
 10
135.984999
 20
160.485012
 30
0.0
 10
135.984999
 20
146.515012
 30
0.0
 10
122.014999
 20
146.515012
 30
0.0
  0
LWPOLYLINE
  5
13f
100
AcDbEntity
  8
0
 62
7
100
AcDbPolyline
 90
5
 70
0
 10
65.015000
 20
143.515013
 30
0.0
 10
65.015000
 20
157.485013
 30
0.0
 10
78.985000
 20
157.485013
 30
0.0
 10
78.985000
 20
143.515013
 30
0.0
 10
65.015000
 20
143.515013
 30
0.0
  0
LWPOLYLINE
  5
140
100
AcDbEntity
  8
0
 62
7
100
AcDbPolyline
 90
5
 70
0
 10
141.015000
 20
137.015015
 30
0.0
 10
141.015000
 20
150.985015
 30
0.0
 10
154.985000
 20
150.985015
 30
0.0
 10
154.985000
 20
137.015015
 30
0.0
 10
141.015000
 20
137.015015
 30
0.0
  0
LWPOLYLINE
  5
141
100
AcDbEntity
  8
0
 62
7
100
AcDbPolyline
 90
5
 70
0
 10
46.015001
 20
136.515013
 30
0.0
 10
46.015001
 20
150.485013
 30
0.0
 10
59.985001
 20
150.485013
 30
0.0
 10
59.985001
 20
136.515013
 30
0.0
 10
46.015001
 20
136.515013
 30
0.0
  0
LWPOLYLINE
  5
142
100
AcDbEntity
  8
0
 62
7
100
AcDbPolyline
 90
5
 70
0
 10
27.015000
 20
131.765012
 30
0.0
 10
27.015000
 20
145.735012
 30
0.0
 10
40.985000
 20
145.735012
 30
0.0
 10
40.985000
 20
131.765012
 30
0.0
 10
27.015000
 20
131.765012
 30
0.0
  0
LWPOLYLINE
  5
143
100
AcDbEntity
  8
0
 62
7
100
AcDbPolyline
 90
5
 70
0
 10
84.014999
 20
130.515013
 30
0.0
 10
84.014999
 20
144.485013
 30
0.0
 10
97.984999
 20
144.485013
 30
0.0
 10
97.984999
 20
130.515013
 30
0.0
 10
84.014999
 20
130.515013
 30
0.0
  0
LWPOLYLINE
  5
144
100
AcDbEntity
  8
0
 62
7
100
AcDbPolyline
 90
5
 70
0
 10
103.015000
 20
127.515014
 30
0.0
 10
103.015000
 20
141.485014
 30
0.0
 10
116.985000
 20
141.485014
 30
0.0
 10
116.985000
 20
127.515014
 30
0.0
 10
103.015000
 20
127.515014
 30
0.0
  0
LWPOLYLINE
  5
145
100
AcDbEntity
  8
0
 62
7
100
AcDbPolyline
 90
5
 70
0
 10
122.014999
 20
127.515014
 30
0.0
 10
122.014999
 20
141.485014
 30
0.0
 10
135.984999
 20
141.485014
 30
0.0
 10
135.984999
 20
127.515014
 30
0.0
 10
122.014999
 20
127.515014
 30
0.0
  0
LWPOLYLINE
  5
146
100
AcDbEntity
  8
0
 62
7
100
AcDbPolyline
 90
5
 70
0
 10
65.015000
 20
124.515014
 30
0.0
 10
65.015000
 20
138.485014
 30
0.0
 10
78.985000
 20
138.485014
 30
0.0
 10
78.985000
 20
124.515014
 30
0.0
 10
65.015000
 20
124.515014
 30
0.0
  0
LWPOLYLINE
  5
147
100
AcDbEntity
  8
0
 62
7
100
AcDbPolyline
 90
5
 70
0
 10
46.015001
 20
117.515014
 30
0.0
 10
46.015001
 20
131.485014
 30
0.0
 10
59.985001
 20
131.485014
 30
0.0
 10
59.985001
 20
117.515014
 30
0.0
 10
46.015001
 20
117.515014
 30
0.0
  0
ENDSEC
  0
SECTION
  2
OBJECTS
  0
DICTIONARY
  5
C
330
0
100
AcDbDictionary
  3
ACAD_GROUP
350
D
  3
ACAD_MLINESTYLE
350
17
  0
DICTIONARY
  5
D
330
C
100
AcDbDictionary
  0
DICTIONARY
  5
1A
330
C
100
AcDbDictionary
  0
DICTIONARY
  5
17
330
C
100
AcDbDictionary
  3
STANDARD
350
18
  0
DICTIONARY
  5
19
330
C
100
AcDbDictionary
  0
ENDSEC
  0
EOF
